  0
SECTION
  2
HEADER
  9
$EXTMIN
 10
0.000000
 20
0.000000
  9
$EXTMAX
 10
36.000000
 20
24.000000
  9
$LTSCALE
 40
100.000000
  9
$PDMODE
 70
35
  9
$PDSIZE
 40
80.000000
  0
ENDSEC
  0
SECTION
  2
TABLES
  0
TABLE
  2
LAYER
 70
1
  0
LAYER
  2
LAYER_1
 70
0
 62
1
  6
CONTINUOUS
  0
ENDTAB
  0
ENDSEC
  0
SECTION
  2
BLOCKS
  0
ENDSEC
  0
SECTION
  2
ENTITIES
  0
POLYLINE
  8
LAYER_1
 62
0
 70
1
 66
1
  0
VERTEX
  8
LAYER_1
 62
7
 10
33.397442
 20
5.961326
  0
VERTEX
  8
LAYER_1
 62
7
 10
21.397442
 20
5.961326
  0
VERTEX
  8
LAYER_1
 62
7
 10
21.397442
 20
-0.038674
  0
VERTEX
  8
LAYER_1
 62
7
 10
33.397442
 20
-0.038674
  0
VERTEX
  8
LAYER_1
 62
7
 10
33.397442
 20
5.961326
  0
SEQEND
  0
POLYLINE
  8
LAYER_1
 62
0
 70
1
 66
1
  0
VERTEX
  8
LAYER_1
 62
7
 10
24.441376
 20
1.023826
 42
0.199589
  0
VERTEX
  8
LAYER_1
 62
7
 10
24.487043
 20
1.042742
 42
0.199589
  0
VERTEX
  8
LAYER_1
 62
7
 10
24.505959
 20
1.088409
  0
VERTEX
  8
LAYER_1
 62
7
 10
24.505959
 20
4.834242
 42
0.199589
  0
VERTEX
  8
LAYER_1
 62
7
 10
24.487043
 20
4.879910
 42
0.199589
  0
VERTEX
  8
LAYER_1
 62
7
 10
24.441376
 20
4.898826
  0
VERTEX
  8
LAYER_1
 62
7
 10
22.633043
 20
4.898826
 42
0.199589
  0
VERTEX
  8
LAYER_1
 62
7
 10
22.587375
 20
4.879910
 42
0.199589
  0
VERTEX
  8
LAYER_1
 62
7
 10
22.568459
 20
4.834242
  0
VERTEX
  8
LAYER_1
 62
7
 10
22.568459
 20
1.088409
 42
0.168014
  0
VERTEX
  8
LAYER_1
 62
7
 10
22.578550
 20
1.063270
 42
0.068280
  0
VERTEX
  8
LAYER_1
 62
7
 10
22.600751
 20
1.042742
 42
0.045771
  0
VERTEX
  8
LAYER_1
 62
7
 10
22.633043
 20
1.023826
  0
VERTEX
  8
LAYER_1
 62
7
 10
24.441376
 20
1.023826
  0
SEQEND
  0
POLYLINE
  8
LAYER_1
 62
1
 70
1
 66
1
  0
VERTEX
  8
LAYER_1
 62
7
 10
24.186272
 20
4.015340
  0
VERTEX
  8
LAYER_1
 62
7
 10
22.888147
 20
4.015340
 42
0.199589
  0
VERTEX
  8
LAYER_1
 62
7
 10
22.842479
 20
3.996424
 42
0.199589
  0
VERTEX
  8
LAYER_1
 62
7
 10
22.823563
 20
3.950756
  0
VERTEX
  8
LAYER_1
 62
7
 10
22.823563
 20
2.662319
 42
0.199589
  0
VERTEX
  8
LAYER_1
 62
7
 10
22.842479
 20
2.616651
 42
0.199589
  0
VERTEX
  8
LAYER_1
 62
7
 10
22.888147
 20
2.597735
  0
VERTEX
  8
LAYER_1
 62
7
 10
24.186272
 20
2.597735
 42
0.199589
  0
VERTEX
  8
LAYER_1
 62
7
 10
24.231939
 20
2.616651
 42
0.199589
  0
VERTEX
  8
LAYER_1
 62
7
 10
24.250855
 20
2.662319
  0
VERTEX
  8
LAYER_1
 62
7
 10
24.250855
 20
3.950756
 42
0.199589
  0
VERTEX
  8
LAYER_1
 62
7
 10
24.231939
 20
3.996424
 42
0.199589
  0
VERTEX
  8
LAYER_1
 62
7
 10
24.186272
 20
4.015340
  0
SEQEND
  0
POLYLINE
  8
LAYER_1
 62
0
 70
1
 66
1
  0
VERTEX
  8
LAYER_1
 62
7
 10
22.955959
 20
3.946881
  0
VERTEX
  8
LAYER_1
 62
7
 10
24.112341
 20
3.946881
  0
VERTEX
  8
LAYER_1
 62
7
 10
24.112341
 20
3.855755
  0
VERTEX
  8
LAYER_1
 62
7
 10
23.269528
 20
3.855755
  0
VERTEX
  8
LAYER_1
 62
7
 10
23.269528
 20
3.799830
  0
VERTEX
  8
LAYER_1
 62
7
 10
24.069512
 20
3.799830
  0
VERTEX
  8
LAYER_1
 62
7
 10
24.069512
 20
3.714665
  0
VERTEX
  8
LAYER_1
 62
7
 10
23.269528
 20
3.714665
  0
VERTEX
  8
LAYER_1
 62
7
 10
23.269528
 20
3.652495
  0
VERTEX
  8
LAYER_1
 62
7
 10
24.118459
 20
3.652495
  0
VERTEX
  8
LAYER_1
 62
7
 10
24.118459
 20
3.559381
  0
VERTEX
  8
LAYER_1
 62
7
 10
22.955959
 20
3.559381
  0
VERTEX
  8
LAYER_1
 62
7
 10
22.955959
 20
3.946881
  0
SEQEND
  0
POLYLINE
  8
LAYER_1
 62
0
 70
1
 66
1
  0
VERTEX
  8
LAYER_1
 62
7
 10
22.955959
 20
3.503194
  0
VERTEX
  8
LAYER_1
 62
7
 10
23.224274
 20
3.503194
  0
VERTEX
  8
LAYER_1
 62
7
 10
23.516660
 20
3.213066
  0
VERTEX
  8
LAYER_1
 62
7
 10
23.562456
 20
3.213066
  0
VERTEX
  8
LAYER_1
 62
7
 10
23.851906
 20
3.503194
  0
VERTEX
  8
LAYER_1
 62
7
 10
24.118459
 20
3.503194
  0
VERTEX
  8
LAYER_1
 62
7
 10
23.727437
 20
3.115694
  0
VERTEX
  8
LAYER_1
 62
7
 10
23.352266
 20
3.115694
  0
VERTEX
  8
LAYER_1
 62
7
 10
22.955959
 20
3.503194
  0
SEQEND
  0
POLYLINE
  8
LAYER_1
 62
0
 70
1
 66
1
  0
VERTEX
  8
LAYER_1
 62
7
 10
23.537209
 20
3.065319
 42
-0.012709
  0
VERTEX
  8
LAYER_1
 62
7
 10
23.913968
 20
3.059069
 42
-0.068000
  0
VERTEX
  8
LAYER_1
 62
7
 10
24.033410
 20
3.038403
 42
-0.172905
  0
VERTEX
  8
LAYER_1
 62
7
 10
24.095532
 20
2.994584
 42
-0.089880
  0
VERTEX
  8
LAYER_1
 62
7
 10
24.112727
 20
2.943380
 42
-0.043314
  0
VERTEX
  8
LAYER_1
 62
7
 10
24.118459
 20
2.865898
 42
-0.043215
  0
VERTEX
  8
LAYER_1
 62
7
 10
24.112727
 20
2.788204
 42
-0.089947
  0
VERTEX
  8
LAYER_1
 62
7
 10
24.095532
 20
2.736928
 42
-0.172905
  0
VERTEX
  8
LAYER_1
 62
7
 10
24.033410
 20
2.693110
 42
-0.068000
  0
VERTEX
  8
LAYER_1
 62
7
 10
23.913968
 20
2.672443
 42
-0.012750
  0
VERTEX
  8
LAYER_1
 62
7
 10
23.539688
 20
2.666194
 42
-0.012668
  0
VERTEX
  8
LAYER_1
 62
7
 10
23.160450
 20
2.672443
 42
-0.068000
  0
VERTEX
  8
LAYER_1
 62
7
 10
23.041009
 20
2.693110
 42
-0.172905
  0
VERTEX
  8
LAYER_1
 62
7
 10
22.978887
 20
2.736928
 42
-0.090463
  0
VERTEX
  8
LAYER_1
 62
7
 10
22.961691
 20
2.788772
 42
-0.042437
  0
VERTEX
  8
LAYER_1
 62
7
 10
22.955959
 20
2.868171
 42
-0.044106
  0
VERTEX
  8
LAYER_1
 62
7
 10
22.961691
 20
2.944090
 42
-0.090088
  0
VERTEX
  8
LAYER_1
 62
7
 10
22.978887
 20
2.994584
 42
-0.172905
  0
VERTEX
  8
LAYER_1
 62
7
 10
23.041009
 20
3.038403
 42
-0.068000
  0
VERTEX
  8
LAYER_1
 62
7
 10
23.160450
 20
3.059069
 42
-0.012748
  0
VERTEX
  8
LAYER_1
 62
7
 10
23.537209
 20
3.065319
  0
SEQEND
  0
POLYLINE
  8
LAYER_1
 62
0
 70
1
 66
1
  0
VERTEX
  8
LAYER_1
 62
7
 10
23.537829
 20
2.964472
 42
0.018285
  0
VERTEX
  8
LAYER_1
 62
7
 10
23.291201
 20
2.959643
 42
0.065672
  0
VERTEX
  8
LAYER_1
 62
7
 10
23.251697
 20
2.950446
 42
0.135560
  0
VERTEX
  8
LAYER_1
 62
7
 10
23.228614
 20
2.934218
 42
0.111542
  0
VERTEX
  8
LAYER_1
 62
7
 10
23.217460
 20
2.904710
 42
0.045619
  0
VERTEX
  8
LAYER_1
 62
7
 10
23.213742
 20
2.855672
 42
0.038229
  0
VERTEX
  8
LAYER_1
 62
7
 10
23.215756
 20
2.825063
 42
0.076859
  0
VERTEX
  8
LAYER_1
 62
7
 10
23.221798
 20
2.804254
 42
0.187934
  0
VERTEX
  8
LAYER_1
 62
7
 10
23.252936
 20
2.781031
 42
0.070760
  0
VERTEX
  8
LAYER_1
 62
7
 10
23.315368
 20
2.770449
 42
0.012015
  0
VERTEX
  8
LAYER_1
 62
7
 10
23.539068
 20
2.767040
 42
0.009908
  0
VERTEX
  8
LAYER_1
 62
7
 10
23.746038
 20
2.769597
 42
0.067427
  0
VERTEX
  8
LAYER_1
 62
7
 10
23.822257
 20
2.780960
 42
0.192612
  0
VERTEX
  8
LAYER_1
 62
7
 10
23.852621
 20
2.804396
 42
0.078983
  0
VERTEX
  8
LAYER_1
 62
7
 10
23.858663
 20
2.824814
 42
0.038733
  0
VERTEX
  8
LAYER_1
 62
7
 10
23.860677
 20
2.855103
 42
0.070140
  0
VERTEX
  8
LAYER_1
 62
7
 10
23.854480
 20
2.916464
 42
0.185573
  0
VERTEX
  8
LAYER_1
 62
7
 10
23.832172
 20
2.946007
 42
0.079454
  0
VERTEX
  8
LAYER_1
 62
7
 10
23.805061
 20
2.956128
 42
0.039884
  0
VERTEX
  8
LAYER_1
 62
7
 10
23.764628
 20
2.961489
 42
0.011391
  0
VERTEX
  8
LAYER_1
 62
7
 10
23.537829
 20
2.964472
  0
SEQEND
  0
POLYLINE
  8
LAYER_1
 62
7
 70
1
 66
1
  0
VERTEX
  8
LAYER_1
 62
7
 10
24.085907
 20
1.507787
 42
0.199589
  0
VERTEX
  8
LAYER_1
 62
7
 10
24.066869
 20
1.553748
 42
0.199589
  0
VERTEX
  8
LAYER_1
 62
7
 10
24.020907
 20
1.572787
 42
0.199589
  0
VERTEX
  8
LAYER_1
 62
7
 10
23.974945
 20
1.553748
 42
0.199589
  0
VERTEX
  8
LAYER_1
 62
7
 10
23.955907
 20
1.507787
 42
0.199589
  0
VERTEX
  8
LAYER_1
 62
7
 10
23.974945
 20
1.461825
 42
0.199589
  0
VERTEX
  8
LAYER_1
 62
7
 10
24.020907
 20
1.442787
 42
0.199589
  0
VERTEX
  8
LAYER_1
 62
7
 10
24.066869
 20
1.461825
 42
0.199589
  0
VERTEX
  8
LAYER_1
 62
7
 10
24.085907
 20
1.507787
  0
SEQEND
  0
POLYLINE
  8
LAYER_1
 62
7
 70
1
 66
1
  0
VERTEX
  8
LAYER_1
 62
7
 10
24.086232
 20
4.414369
 42
0.199589
  0
VERTEX
  8
LAYER_1
 62
7
 10
24.067194
 20
4.460331
 42
0.199589
  0
VERTEX
  8
LAYER_1
 62
7
 10
24.021232
 20
4.479369
 42
0.199589
  0
VERTEX
  8
LAYER_1
 62
7
 10
23.975270
 20
4.460331
 42
0.199589
  0
VERTEX
  8
LAYER_1
 62
7
 10
23.956232
 20
4.414369
 42
0.199589
  0
VERTEX
  8
LAYER_1
 62
7
 10
23.975270
 20
4.368407
 42
0.199589
  0
VERTEX
  8
LAYER_1
 62
7
 10
24.021232
 20
4.349369
 42
0.199589
  0
VERTEX
  8
LAYER_1
 62
7
 10
24.067194
 20
4.368407
 42
0.199589
  0
VERTEX
  8
LAYER_1
 62
7
 10
24.086232
 20
4.414369
  0
SEQEND
  0
POLYLINE
  8
LAYER_1
 62
7
 70
1
 66
1
  0
VERTEX
  8
LAYER_1
 62
7
 10
23.117788
 20
4.414736
 42
0.199589
  0
VERTEX
  8
LAYER_1
 62
7
 10
23.098750
 20
4.460698
 42
0.199589
  0
VERTEX
  8
LAYER_1
 62
7
 10
23.052788
 20
4.479736
 42
0.199589
  0
VERTEX
  8
LAYER_1
 62
7
 10
23.006826
 20
4.460698
 42
0.199589
  0
VERTEX
  8
LAYER_1
 62
7
 10
22.987788
 20
4.414736
 42
0.199589
  0
VERTEX
  8
LAYER_1
 62
7
 10
23.006826
 20
4.368774
 42
0.199589
  0
VERTEX
  8
LAYER_1
 62
7
 10
23.052788
 20
4.349736
 42
0.199589
  0
VERTEX
  8
LAYER_1
 62
7
 10
23.098750
 20
4.368774
 42
0.199589
  0
VERTEX
  8
LAYER_1
 62
7
 10
23.117788
 20
4.414736
  0
SEQEND
  0
POLYLINE
  8
LAYER_1
 62
7
 70
1
 66
1
  0
VERTEX
  8
LAYER_1
 62
7
 10
23.117754
 20
1.507871
 42
0.199589
  0
VERTEX
  8
LAYER_1
 62
7
 10
23.098716
 20
1.553832
 42
0.199589
  0
VERTEX
  8
LAYER_1
 62
7
 10
23.052754
 20
1.572871
 42
0.199589
  0
VERTEX
  8
LAYER_1
 62
7
 10
23.006792
 20
1.553832
 42
0.199589
  0
VERTEX
  8
LAYER_1
 62
7
 10
22.987754
 20
1.507871
 42
0.199589
  0
VERTEX
  8
LAYER_1
 62
7
 10
23.006792
 20
1.461909
 42
0.199589
  0
VERTEX
  8
LAYER_1
 62
7
 10
23.052754
 20
1.442871
 42
0.199589
  0
VERTEX
  8
LAYER_1
 62
7
 10
23.098716
 20
1.461909
 42
0.199589
  0
VERTEX
  8
LAYER_1
 62
7
 10
23.117754
 20
1.507871
  0
SEQEND
  0
POLYLINE
  8
LAYER_1
 62
1
 70
1
 66
1
  0
VERTEX
  8
LAYER_1
 62
7
 10
22.823709
 20
2.467213
  0
VERTEX
  8
LAYER_1
 62
7
 10
22.862695
 20
2.467213
  0
VERTEX
  8
LAYER_1
 62
7
 10
22.862695
 20
2.376484
  0
VERTEX
  8
LAYER_1
 62
7
 10
22.949321
 20
2.376484
  0
VERTEX
  8
LAYER_1
 62
7
 10
22.949321
 20
2.345438
  0
VERTEX
  8
LAYER_1
 62
7
 10
22.823709
 20
2.345438
  0
VERTEX
  8
LAYER_1
 62
7
 10
22.823709
 20
2.467213
  0
SEQEND
  0
POLYLINE
  8
LAYER_1
 62
1
 70
1
 66
1
  0
VERTEX
  8
LAYER_1
 62
7
 10
23.070445
 20
2.467213
  0
VERTEX
  8
LAYER_1
 62
7
 10
23.107557
 20
2.467213
  0
VERTEX
  8
LAYER_1
 62
7
 10
23.107557
 20
2.411277
 42
0.035344
  0
VERTEX
  8
LAYER_1
 62
7
 10
23.108895
 20
2.386922
 42
0.304015
  0
VERTEX
  8
LAYER_1
 62
7
 10
23.118129
 20
2.377555
 42
0.047936
  0
VERTEX
  8
LAYER_1
 62
7
 10
23.129916
 20
2.375882
  0
VERTEX
  8
LAYER_1
 62
7
 10
23.149665
 20
2.375324
 42
0.031574
  0
VERTEX
  8
LAYER_1
 62
7
 10
23.176385
 20
2.376439
 42
0.061214
  0
VERTEX
  8
LAYER_1
 62
7
 10
23.182752
 20
2.378101
 42
0.104817
  0
VERTEX
  8
LAYER_1
 62
7
 10
23.186956
 20
2.380855
 42
0.120269
  0
VERTEX
  8
LAYER_1
 62
7
 10
23.189856
 20
2.386476
 42
0.042782
  0
VERTEX
  8
LAYER_1
 62
7
 10
23.191149
 20
2.397806
  0
VERTEX
  8
LAYER_1
 62
7
 10
23.191595
 20
2.411277
  0
VERTEX
  8
LAYER_1
 62
7
 10
23.191595
 20
2.467213
  0
VERTEX
  8
LAYER_1
 62
7
 10
23.228708
 20
2.467213
  0
VERTEX
  8
LAYER_1
 62
7
 10
23.228708
 20
2.411277
 42
-0.022646
  0
VERTEX
  8
LAYER_1
 62
7
 10
23.226834
 20
2.373094
 42
-0.242486
  0
VERTEX
  8
LAYER_1
 62
7
 10
23.212203
 20
2.350612
 42
-0.101447
  0
VERTEX
  8
LAYER_1
 62
7
 10
23.192309
 20
2.345081
  0
VERTEX
  8
LAYER_1
 62
7
 10
23.150111
 20
2.343654
  0
VERTEX
  8
LAYER_1
 62
7
 10
23.116121
 20
2.344457
 42
-0.039804
  0
VERTEX
  8
LAYER_1
 62
7
 10
23.095335
 20
2.347311
 42
-0.144668
  0
VERTEX
  8
LAYER_1
 62
7
 10
23.079856
 20
2.355519
 42
-0.153147
  0
VERTEX
  8
LAYER_1
 62
7
 10
23.072496
 20
2.370864
  0
VERTEX
  8
LAYER_1
 62
7
 10
23.070935
 20
2.383978
  0
VERTEX
  8
LAYER_1
 62
7
 10
23.070445
 20
2.411277
  0
VERTEX
  8
LAYER_1
 62
7
 10
23.070445
 20
2.467213
  0
SEQEND
  0
POLYLINE
  8
LAYER_1
 62
1
 70
1
 66
1
  0
VERTEX
  8
LAYER_1
 62
7
 10
23.349921
 20
2.467213
  0
VERTEX
  8
LAYER_1
 62
7
 10
23.497300
 20
2.467213
  0
VERTEX
  8
LAYER_1
 62
7
 10
23.497300
 20
2.436167
  0
VERTEX
  8
LAYER_1
 62
7
 10
23.443148
 20
2.436167
  0
VERTEX
  8
LAYER_1
 62
7
 10
23.443148
 20
2.345438
  0
VERTEX
  8
LAYER_1
 62
7
 10
23.404162
 20
2.345438
  0
VERTEX
  8
LAYER_1
 62
7
 10
23.404162
 20
2.436167
  0
VERTEX
  8
LAYER_1
 62
7
 10
23.349921
 20
2.436167
  0
VERTEX
  8
LAYER_1
 62
7
 10
23.349921
 20
2.467213
  0
SEQEND
  0
POLYLINE
  8
LAYER_1
 62
1
 70
1
 66
1
  0
VERTEX
  8
LAYER_1
 62
7
 10
23.619138
 20
2.467213
  0
VERTEX
  8
LAYER_1
 62
7
 10
23.658124
 20
2.467213
  0
VERTEX
  8
LAYER_1
 62
7
 10
23.658124
 20
2.345438
  0
VERTEX
  8
LAYER_1
 62
7
 10
23.619138
 20
2.345438
  0
VERTEX
  8
LAYER_1
 62
7
 10
23.619138
 20
2.467213
  0
SEQEND
  0
POLYLINE
  8
LAYER_1
 62
1
 70
1
 66
1
  0
VERTEX
  8
LAYER_1
 62
7
 10
23.869620
 20
2.468997
 42
-0.027684
  0
VERTEX
  8
LAYER_1
 62
7
 10
23.923861
 20
2.467035
 42
-0.132803
  0
VERTEX
  8
LAYER_1
 62
7
 10
23.941057
 20
2.460545
 42
-0.165850
  0
VERTEX
  8
LAYER_1
 62
7
 10
23.950000
 20
2.446783
 42
-0.059496
  0
VERTEX
  8
LAYER_1
 62
7
 10
23.953301
 20
2.406370
 42
-0.059438
  0
VERTEX
  8
LAYER_1
 62
7
 10
23.950000
 20
2.365868
 42
-0.165850
  0
VERTEX
  8
LAYER_1
 62
7
 10
23.941057
 20
2.352107
 42
-0.132803
  0
VERTEX
  8
LAYER_1
 62
7
 10
23.923861
 20
2.345616
 42
-0.027773
  0
VERTEX
  8
LAYER_1
 62
7
 10
23.869977
 20
2.343654
 42
-0.027595
  0
VERTEX
  8
LAYER_1
 62
7
 10
23.815379
 20
2.345616
 42
-0.132803
  0
VERTEX
  8
LAYER_1
 62
7
 10
23.798183
 20
2.352107
 42
-0.165850
  0
VERTEX
  8
LAYER_1
 62
7
 10
23.789239
 20
2.365868
 42
-0.058976
  0
VERTEX
  8
LAYER_1
 62
7
 10
23.785938
 20
2.407084
 42
-0.060208
  0
VERTEX
  8
LAYER_1
 62
7
 10
23.789239
 20
2.446783
 42
-0.165850
  0
VERTEX
  8
LAYER_1
 62
7
 10
23.798183
 20
2.460545
 42
-0.132803
  0
VERTEX
  8
LAYER_1
 62
7
 10
23.815379
 20
2.467035
 42
-0.027768
  0
VERTEX
  8
LAYER_1
 62
7
 10
23.869620
 20
2.468997
  0
SEQEND
  0
POLYLINE
  8
LAYER_1
 62
1
 70
1
 66
1
  0
VERTEX
  8
LAYER_1
 62
7
 10
23.869709
 20
2.437327
 42
0.039789
  0
VERTEX
  8
LAYER_1
 62
7
 10
23.834202
 20
2.435810
 42
0.267660
  0
VERTEX
  8
LAYER_1
 62
7
 10
23.825192
 20
2.427826
 42
0.057261
  0
VERTEX
  8
LAYER_1
 62
7
 10
23.823586
 20
2.418559
  0
VERTEX
  8
LAYER_1
 62
7
 10
23.823051
 20
2.403159
 42
0.051132
  0
VERTEX
  8
LAYER_1
 62
7
 10
23.824211
 20
2.387011
 42
0.172946
  0
VERTEX
  8
LAYER_1
 62
7
 10
23.828694
 20
2.379718
 42
0.138653
  0
VERTEX
  8
LAYER_1
 62
7
 10
23.837682
 20
2.376395
 42
0.026177
  0
VERTEX
  8
LAYER_1
 62
7
 10
23.869888
 20
2.375324
 42
0.021595
  0
VERTEX
  8
LAYER_1
 62
7
 10
23.899685
 20
2.376127
 42
0.134581
  0
VERTEX
  8
LAYER_1
 62
7
 10
23.910658
 20
2.379696
 42
0.174118
  0
VERTEX
  8
LAYER_1
 62
7
 10
23.915029
 20
2.387056
 42
0.052226
  0
VERTEX
  8
LAYER_1
 62
7
 10
23.916189
 20
2.402980
 42
0.032481
  0
VERTEX
  8
LAYER_1
 62
7
 10
23.915297
 20
2.422250
 42
0.121002
  0
VERTEX
  8
LAYER_1
 62
7
 10
23.912085
 20
2.431528
 42
0.203650
  0
VERTEX
  8
LAYER_1
 62
7
 10
23.902361
 20
2.436390
 42
0.024824
  0
VERTEX
  8
LAYER_1
 62
7
 10
23.869709
 20
2.437327
  0
SEQEND
  0
POLYLINE
  8
LAYER_1
 62
1
 70
1
 66
1
  0
VERTEX
  8
LAYER_1
 62
7
 10
24.081205
 20
2.467213
  0
VERTEX
  8
LAYER_1
 62
7
 10
24.146241
 20
2.467213
  0
VERTEX
  8
LAYER_1
 62
7
 10
24.210028
 20
2.376395
  0
VERTEX
  8
LAYER_1
 62
7
 10
24.213865
 20
2.376395
  0
VERTEX
  8
LAYER_1
 62
7
 10
24.212972
 20
2.467213
  0
VERTEX
  8
LAYER_1
 62
7
 10
24.250709
 20
2.467213
  0
VERTEX
  8
LAYER_1
 62
7
 10
24.250709
 20
2.345438
  0
VERTEX
  8
LAYER_1
 62
7
 10
24.186209
 20
2.345438
  0
VERTEX
  8
LAYER_1
 62
7
 10
24.122154
 20
2.436256
  0
VERTEX
  8
LAYER_1
 62
7
 10
24.118139
 20
2.436256
  0
VERTEX
  8
LAYER_1
 62
7
 10
24.118942
 20
2.345438
  0
VERTEX
  8
LAYER_1
 62
7
 10
24.081205
 20
2.345438
  0
VERTEX
  8
LAYER_1
 62
7
 10
24.081205
 20
2.467213
  0
SEQEND
  0
POLYLINE
  8
LAYER_1
 62
0
 70
1
 66
1
  0
VERTEX
  8
LAYER_1
 62
7
 10
27.019981
 20
1.023826
 42
0.199589
  0
VERTEX
  8
LAYER_1
 62
7
 10
27.065648
 20
1.042742
 42
0.199589
  0
VERTEX
  8
LAYER_1
 62
7
 10
27.084564
 20
1.088409
  0
VERTEX
  8
LAYER_1
 62
7
 10
27.084564
 20
4.834242
 42
0.199589
  0
VERTEX
  8
LAYER_1
 62
7
 10
27.065648
 20
4.879910
 42
0.199589
  0
VERTEX
  8
LAYER_1
 62
7
 10
27.019981
 20
4.898826
  0
VERTEX
  8
LAYER_1
 62
7
 10
25.211647
 20
4.898826
 42
0.199589
  0
VERTEX
  8
LAYER_1
 62
7
 10
25.165980
 20
4.879910
 42
0.199589
  0
VERTEX
  8
LAYER_1
 62
7
 10
25.147064
 20
4.834242
  0
VERTEX
  8
LAYER_1
 62
7
 10
25.147064
 20
1.088409
 42
0.168014
  0
VERTEX
  8
LAYER_1
 62
7
 10
25.157155
 20
1.063270
 42
0.068280
  0
VERTEX
  8
LAYER_1
 62
7
 10
25.179356
 20
1.042742
 42
0.045771
  0
VERTEX
  8
LAYER_1
 62
7
 10
25.211647
 20
1.023826
  0
VERTEX
  8
LAYER_1
 62
7
 10
27.019981
 20
1.023826
  0
SEQEND
  0
POLYLINE
  8
LAYER_1
 62
1
 70
1
 66
1
  0
VERTEX
  8
LAYER_1
 62
7
 10
26.764876
 20
4.015340
  0
VERTEX
  8
LAYER_1
 62
7
 10
25.466751
 20
4.015340
 42
0.199589
  0
VERTEX
  8
LAYER_1
 62
7
 10
25.421084
 20
3.996424
 42
0.199589
  0
VERTEX
  8
LAYER_1
 62
7
 10
25.402168
 20
3.950756
  0
VERTEX
  8
LAYER_1
 62
7
 10
25.402168
 20
2.662319
 42
0.199589
  0
VERTEX
  8
LAYER_1
 62
7
 10
25.421084
 20
2.616651
 42
0.199589
  0
VERTEX
  8
LAYER_1
 62
7
 10
25.466751
 20
2.597735
  0
VERTEX
  8
LAYER_1
 62
7
 10
26.764876
 20
2.597735
 42
0.199589
  0
VERTEX
  8
LAYER_1
 62
7
 10
26.810544
 20
2.616651
 42
0.199589
  0
VERTEX
  8
LAYER_1
 62
7
 10
26.829460
 20
2.662319
  0
VERTEX
  8
LAYER_1
 62
7
 10
26.829460
 20
3.950756
 42
0.199589
  0
VERTEX
  8
LAYER_1
 62
7
 10
26.810544
 20
3.996424
 42
0.199589
  0
VERTEX
  8
LAYER_1
 62
7
 10
26.764876
 20
4.015340
  0
SEQEND
  0
POLYLINE
  8
LAYER_1
 62
0
 70
1
 66
1
  0
VERTEX
  8
LAYER_1
 62
7
 10
25.534564
 20
3.946881
  0
VERTEX
  8
LAYER_1
 62
7
 10
26.690946
 20
3.946881
  0
VERTEX
  8
LAYER_1
 62
7
 10
26.690946
 20
3.855755
  0
VERTEX
  8
LAYER_1
 62
7
 10
25.848133
 20
3.855755
  0
VERTEX
  8
LAYER_1
 62
7
 10
25.848133
 20
3.799830
  0
VERTEX
  8
LAYER_1
 62
7
 10
26.648117
 20
3.799830
  0
VERTEX
  8
LAYER_1
 62
7
 10
26.648117
 20
3.714665
  0
VERTEX
  8
LAYER_1
 62
7
 10
25.848133
 20
3.714665
  0
VERTEX
  8
LAYER_1
 62
7
 10
25.848133
 20
3.652495
  0
VERTEX
  8
LAYER_1
 62
7
 10
26.697064
 20
3.652495
  0
VERTEX
  8
LAYER_1
 62
7
 10
26.697064
 20
3.559381
  0
VERTEX
  8
LAYER_1
 62
7
 10
25.534564
 20
3.559381
  0
VERTEX
  8
LAYER_1
 62
7
 10
25.534564
 20
3.946881
  0
SEQEND
  0
POLYLINE
  8
LAYER_1
 62
0
 70
1
 66
1
  0
VERTEX
  8
LAYER_1
 62
7
 10
25.534564
 20
3.503194
  0
VERTEX
  8
LAYER_1
 62
7
 10
25.802878
 20
3.503194
  0
VERTEX
  8
LAYER_1
 62
7
 10
26.095265
 20
3.213066
  0
VERTEX
  8
LAYER_1
 62
7
 10
26.141060
 20
3.213066
  0
VERTEX
  8
LAYER_1
 62
7
 10
26.430511
 20
3.503194
  0
VERTEX
  8
LAYER_1
 62
7
 10
26.697064
 20
3.503194
  0
VERTEX
  8
LAYER_1
 62
7
 10
26.306041
 20
3.115694
  0
VERTEX
  8
LAYER_1
 62
7
 10
25.930871
 20
3.115694
  0
VERTEX
  8
LAYER_1
 62
7
 10
25.534564
 20
3.503194
  0
SEQEND
  0
POLYLINE
  8
LAYER_1
 62
0
 70
1
 66
1
  0
VERTEX
  8
LAYER_1
 62
7
 10
26.115814
 20
3.065319
 42
-0.012709
  0
VERTEX
  8
LAYER_1
 62
7
 10
26.492573
 20
3.059069
 42
-0.068000
  0
VERTEX
  8
LAYER_1
 62
7
 10
26.612014
 20
3.038403
 42
-0.172905
  0
VERTEX
  8
LAYER_1
 62
7
 10
26.674136
 20
2.994584
 42
-0.089880
  0
VERTEX
  8
LAYER_1
 62
7
 10
26.691332
 20
2.943380
 42
-0.043314
  0
VERTEX
  8
LAYER_1
 62
7
 10
26.697064
 20
2.865898
 42
-0.043215
  0
VERTEX
  8
LAYER_1
 62
7
 10
26.691332
 20
2.788204
 42
-0.089947
  0
VERTEX
  8
LAYER_1
 62
7
 10
26.674136
 20
2.736928
 42
-0.172905
  0
VERTEX
  8
LAYER_1
 62
7
 10
26.612014
 20
2.693110
 42
-0.068000
  0
VERTEX
  8
LAYER_1
 62
7
 10
26.492573
 20
2.672443
 42
-0.012750
  0
VERTEX
  8
LAYER_1
 62
7
 10
26.118293
 20
2.666194
 42
-0.012668
  0
VERTEX
  8
LAYER_1
 62
7
 10
25.739055
 20
2.672443
 42
-0.068000
  0
VERTEX
  8
LAYER_1
 62
7
 10
25.619614
 20
2.693110
 42
-0.172905
  0
VERTEX
  8
LAYER_1
 62
7
 10
25.557492
 20
2.736928
 42
-0.090463
  0
VERTEX
  8
LAYER_1
 62
7
 10
25.540296
 20
2.788772
 42
-0.042437
  0
VERTEX
  8
LAYER_1
 62
7
 10
25.534564
 20
2.868171
 42
-0.044106
  0
VERTEX
  8
LAYER_1
 62
7
 10
25.540296
 20
2.944090
 42
-0.090088
  0
VERTEX
  8
LAYER_1
 62
7
 10
25.557492
 20
2.994584
 42
-0.172905
  0
VERTEX
  8
LAYER_1
 62
7
 10
25.619614
 20
3.038403
 42
-0.068000
  0
VERTEX
  8
LAYER_1
 62
7
 10
25.739055
 20
3.059069
 42
-0.012748
  0
VERTEX
  8
LAYER_1
 62
7
 10
26.115814
 20
3.065319
  0
SEQEND
  0
POLYLINE
  8
LAYER_1
 62
0
 70
1
 66
1
  0
VERTEX
  8
LAYER_1
 62
7
 10
26.116434
 20
2.964472
 42
0.018285
  0
VERTEX
  8
LAYER_1
 62
7
 10
25.869805
 20
2.959643
 42
0.065672
  0
VERTEX
  8
LAYER_1
 62
7
 10
25.830301
 20
2.950446
 42
0.135560
  0
VERTEX
  8
LAYER_1
 62
7
 10
25.807219
 20
2.934218
 42
0.111542
  0
VERTEX
  8
LAYER_1
 62
7
 10
25.796064
 20
2.904710
 42
0.045619
  0
VERTEX
  8
LAYER_1
 62
7
 10
25.792346
 20
2.855672
 42
0.038229
  0
VERTEX
  8
LAYER_1
 62
7
 10
25.794360
 20
2.825063
 42
0.076859
  0
VERTEX
  8
LAYER_1
 62
7
 10
25.800402
 20
2.804254
 42
0.187934
  0
VERTEX
  8
LAYER_1
 62
7
 10
25.831541
 20
2.781031
 42
0.070760
  0
VERTEX
  8
LAYER_1
 62
7
 10
25.893972
 20
2.770449
 42
0.012015
  0
VERTEX
  8
LAYER_1
 62
7
 10
26.117673
 20
2.767040
 42
0.009908
  0
VERTEX
  8
LAYER_1
 62
7
 10
26.324643
 20
2.769597
 42
0.067427
  0
VERTEX
  8
LAYER_1
 62
7
 10
26.400862
 20
2.780960
 42
0.192612
  0
VERTEX
  8
LAYER_1
 62
7
 10
26.431226
 20
2.804396
 42
0.078983
  0
VERTEX
  8
LAYER_1
 62
7
 10
26.437268
 20
2.824814
 42
0.038733
  0
VERTEX
  8
LAYER_1
 62
7
 10
26.439281
 20
2.855103
 42
0.070140
  0
VERTEX
  8
LAYER_1
 62
7
 10
26.433085
 20
2.916464
 42
0.185573
  0
VERTEX
  8
LAYER_1
 62
7
 10
26.410777
 20
2.946007
 42
0.079454
  0
VERTEX
  8
LAYER_1
 62
7
 10
26.383666
 20
2.956128
 42
0.039884
  0
VERTEX
  8
LAYER_1
 62
7
 10
26.343233
 20
2.961489
 42
0.011391
  0
VERTEX
  8
LAYER_1
 62
7
 10
26.116434
 20
2.964472
  0
SEQEND
  0
POLYLINE
  8
LAYER_1
 62
7
 70
1
 66
1
  0
VERTEX
  8
LAYER_1
 62
7
 10
26.664512
 20
1.507787
 42
0.199589
  0
VERTEX
  8
LAYER_1
 62
7
 10
26.645474
 20
1.553748
 42
0.199589
  0
VERTEX
  8
LAYER_1
 62
7
 10
26.599512
 20
1.572787
 42
0.199589
  0
VERTEX
  8
LAYER_1
 62
7
 10
26.553550
 20
1.553748
 42
0.199589
  0
VERTEX
  8
LAYER_1
 62
7
 10
26.534512
 20
1.507787
 42
0.199589
  0
VERTEX
  8
LAYER_1
 62
7
 10
26.553550
 20
1.461825
 42
0.199589
  0
VERTEX
  8
LAYER_1
 62
7
 10
26.599512
 20
1.442787
 42
0.199589
  0
VERTEX
  8
LAYER_1
 62
7
 10
26.645474
 20
1.461825
 42
0.199589
  0
VERTEX
  8
LAYER_1
 62
7
 10
26.664512
 20
1.507787
  0
SEQEND
  0
POLYLINE
  8
LAYER_1
 62
7
 70
1
 66
1
  0
VERTEX
  8
LAYER_1
 62
7
 10
26.664837
 20
4.414369
 42
0.199589
  0
VERTEX
  8
LAYER_1
 62
7
 10
26.645798
 20
4.460331
 42
0.199589
  0
VERTEX
  8
LAYER_1
 62
7
 10
26.599837
 20
4.479369
 42
0.199589
  0
VERTEX
  8
LAYER_1
 62
7
 10
26.553875
 20
4.460331
 42
0.199589
  0
VERTEX
  8
LAYER_1
 62
7
 10
26.534837
 20
4.414369
 42
0.199589
  0
VERTEX
  8
LAYER_1
 62
7
 10
26.553875
 20
4.368407
 42
0.199589
  0
VERTEX
  8
LAYER_1
 62
7
 10
26.599837
 20
4.349369
 42
0.199589
  0
VERTEX
  8
LAYER_1
 62
7
 10
26.645798
 20
4.368407
 42
0.199589
  0
VERTEX
  8
LAYER_1
 62
7
 10
26.664837
 20
4.414369
  0
SEQEND
  0
POLYLINE
  8
LAYER_1
 62
7
 70
1
 66
1
  0
VERTEX
  8
LAYER_1
 62
7
 10
25.696393
 20
4.414736
 42
0.199589
  0
VERTEX
  8
LAYER_1
 62
7
 10
25.677355
 20
4.460698
 42
0.199589
  0
VERTEX
  8
LAYER_1
 62
7
 10
25.631393
 20
4.479736
 42
0.199589
  0
VERTEX
  8
LAYER_1
 62
7
 10
25.585431
 20
4.460698
 42
0.199589
  0
VERTEX
  8
LAYER_1
 62
7
 10
25.566393
 20
4.414736
 42
0.199589
  0
VERTEX
  8
LAYER_1
 62
7
 10
25.585431
 20
4.368774
 42
0.199589
  0
VERTEX
  8
LAYER_1
 62
7
 10
25.631393
 20
4.349736
 42
0.199589
  0
VERTEX
  8
LAYER_1
 62
7
 10
25.677355
 20
4.368774
 42
0.199589
  0
VERTEX
  8
LAYER_1
 62
7
 10
25.696393
 20
4.414736
  0
SEQEND
  0
POLYLINE
  8
LAYER_1
 62
7
 70
1
 66
1
  0
VERTEX
  8
LAYER_1
 62
7
 10
25.696359
 20
1.507871
 42
0.199589
  0
VERTEX
  8
LAYER_1
 62
7
 10
25.677321
 20
1.553832
 42
0.199589
  0
VERTEX
  8
LAYER_1
 62
7
 10
25.631359
 20
1.572871
 42
0.199589
  0
VERTEX
  8
LAYER_1
 62
7
 10
25.585397
 20
1.553832
 42
0.199589
  0
VERTEX
  8
LAYER_1
 62
7
 10
25.566359
 20
1.507871
 42
0.199589
  0
VERTEX
  8
LAYER_1
 62
7
 10
25.585397
 20
1.461909
 42
0.199589
  0
VERTEX
  8
LAYER_1
 62
7
 10
25.631359
 20
1.442871
 42
0.199589
  0
VERTEX
  8
LAYER_1
 62
7
 10
25.677321
 20
1.461909
 42
0.199589
  0
VERTEX
  8
LAYER_1
 62
7
 10
25.696359
 20
1.507871
  0
SEQEND
  0
POLYLINE
  8
LAYER_1
 62
1
 70
1
 66
1
  0
VERTEX
  8
LAYER_1
 62
7
 10
25.402314
 20
2.467213
  0
VERTEX
  8
LAYER_1
 62
7
 10
25.441300
 20
2.467213
  0
VERTEX
  8
LAYER_1
 62
7
 10
25.441300
 20
2.376484
  0
VERTEX
  8
LAYER_1
 62
7
 10
25.527925
 20
2.376484
  0
VERTEX
  8
LAYER_1
 62
7
 10
25.527925
 20
2.345438
  0
VERTEX
  8
LAYER_1
 62
7
 10
25.402314
 20
2.345438
  0
VERTEX
  8
LAYER_1
 62
7
 10
25.402314
 20
2.467213
  0
SEQEND
  0
POLYLINE
  8
LAYER_1
 62
1
 70
1
 66
1
  0
VERTEX
  8
LAYER_1
 62
7
 10
25.649049
 20
2.467213
  0
VERTEX
  8
LAYER_1
 62
7
 10
25.686162
 20
2.467213
  0
VERTEX
  8
LAYER_1
 62
7
 10
25.686162
 20
2.411277
 42
0.035344
  0
VERTEX
  8
LAYER_1
 62
7
 10
25.687500
 20
2.386922
 42
0.304015
  0
VERTEX
  8
LAYER_1
 62
7
 10
25.696733
 20
2.377555
 42
0.047936
  0
VERTEX
  8
LAYER_1
 62
7
 10
25.708521
 20
2.375882
  0
VERTEX
  8
LAYER_1
 62
7
 10
25.728270
 20
2.375324
 42
0.031574
  0
VERTEX
  8
LAYER_1
 62
7
 10
25.754989
 20
2.376439
 42
0.061214
  0
VERTEX
  8
LAYER_1
 62
7
 10
25.761357
 20
2.378101
 42
0.104817
  0
VERTEX
  8
LAYER_1
 62
7
 10
25.765561
 20
2.380855
 42
0.120269
  0
VERTEX
  8
LAYER_1
 62
7
 10
25.768460
 20
2.386476
 42
0.042782
  0
VERTEX
  8
LAYER_1
 62
7
 10
25.769754
 20
2.397806
  0
VERTEX
  8
LAYER_1
 62
7
 10
25.770200
 20
2.411277
  0
VERTEX
  8
LAYER_1
 62
7
 10
25.770200
 20
2.467213
  0
VERTEX
  8
LAYER_1
 62
7
 10
25.807312
 20
2.467213
  0
VERTEX
  8
LAYER_1
 62
7
 10
25.807312
 20
2.411277
 42
-0.022646
  0
VERTEX
  8
LAYER_1
 62
7
 10
25.805439
 20
2.373094
 42
-0.242486
  0
VERTEX
  8
LAYER_1
 62
7
 10
25.790808
 20
2.350612
 42
-0.101447
  0
VERTEX
  8
LAYER_1
 62
7
 10
25.770914
 20
2.345081
  0
VERTEX
  8
LAYER_1
 62
7
 10
25.728716
 20
2.343654
  0
VERTEX
  8
LAYER_1
 62
7
 10
25.694726
 20
2.344457
 42
-0.039804
  0
VERTEX
  8
LAYER_1
 62
7
 10
25.673940
 20
2.347311
 42
-0.144668
  0
VERTEX
  8
LAYER_1
 62
7
 10
25.658461
 20
2.355519
 42
-0.153147
  0
VERTEX
  8
LAYER_1
 62
7
 10
25.651101
 20
2.370864
  0
VERTEX
  8
LAYER_1
 62
7
 10
25.649540
 20
2.383978
  0
VERTEX
  8
LAYER_1
 62
7
 10
25.649049
 20
2.411277
  0
VERTEX
  8
LAYER_1
 62
7
 10
25.649049
 20
2.467213
  0
SEQEND
  0
POLYLINE
  8
LAYER_1
 62
1
 70
1
 66
1
  0
VERTEX
  8
LAYER_1
 62
7
 10
25.928526
 20
2.467213
  0
VERTEX
  8
LAYER_1
 62
7
 10
26.075905
 20
2.467213
  0
VERTEX
  8
LAYER_1
 62
7
 10
26.075905
 20
2.436167
  0
VERTEX
  8
LAYER_1
 62
7
 10
26.021753
 20
2.436167
  0
VERTEX
  8
LAYER_1
 62
7
 10
26.021753
 20
2.345438
  0
VERTEX
  8
LAYER_1
 62
7
 10
25.982767
 20
2.345438
  0
VERTEX
  8
LAYER_1
 62
7
 10
25.982767
 20
2.436167
  0
VERTEX
  8
LAYER_1
 62
7
 10
25.928526
 20
2.436167
  0
VERTEX
  8
LAYER_1
 62
7
 10
25.928526
 20
2.467213
  0
SEQEND
  0
POLYLINE
  8
LAYER_1
 62
1
 70
1
 66
1
  0
VERTEX
  8
LAYER_1
 62
7
 10
26.197742
 20
2.467213
  0
VERTEX
  8
LAYER_1
 62
7
 10
26.236728
 20
2.467213
  0
VERTEX
  8
LAYER_1
 62
7
 10
26.236728
 20
2.345438
  0
VERTEX
  8
LAYER_1
 62
7
 10
26.197742
 20
2.345438
  0
VERTEX
  8
LAYER_1
 62
7
 10
26.197742
 20
2.467213
  0
SEQEND
  0
POLYLINE
  8
LAYER_1
 62
1
 70
1
 66
1
  0
VERTEX
  8
LAYER_1
 62
7
 10
26.448225
 20
2.468997
 42
-0.027684
  0
VERTEX
  8
LAYER_1
 62
7
 10
26.502466
 20
2.467035
 42
-0.132803
  0
VERTEX
  8
LAYER_1
 62
7
 10
26.519662
 20
2.460545
 42
-0.165850
  0
VERTEX
  8
LAYER_1
 62
7
 10
26.528605
 20
2.446783
 42
-0.059496
  0
VERTEX
  8
LAYER_1
 62
7
 10
26.531906
 20
2.406370
 42
-0.059438
  0
VERTEX
  8
LAYER_1
 62
7
 10
26.528605
 20
2.365868
 42
-0.165850
  0
VERTEX
  8
LAYER_1
 62
7
 10
26.519662
 20
2.352107
 42
-0.132803
  0
VERTEX
  8
LAYER_1
 62
7
 10
26.502466
 20
2.345616
 42
-0.027773
  0
VERTEX
  8
LAYER_1
 62
7
 10
26.448581
 20
2.343654
 42
-0.027595
  0
VERTEX
  8
LAYER_1
 62
7
 10
26.393983
 20
2.345616
 42
-0.132803
  0
VERTEX
  8
LAYER_1
 62
7
 10
26.376788
 20
2.352107
 42
-0.165850
  0
VERTEX
  8
LAYER_1
 62
7
 10
26.367844
 20
2.365868
 42
-0.058976
  0
VERTEX
  8
LAYER_1
 62
7
 10
26.364543
 20
2.407084
 42
-0.060208
  0
VERTEX
  8
LAYER_1
 62
7
 10
26.367844
 20
2.446783
 42
-0.165850
  0
VERTEX
  8
LAYER_1
 62
7
 10
26.376788
 20
2.460545
 42
-0.132803
  0
VERTEX
  8
LAYER_1
 62
7
 10
26.393983
 20
2.467035
 42
-0.027768
  0
VERTEX
  8
LAYER_1
 62
7
 10
26.448225
 20
2.468997
  0
SEQEND
  0
POLYLINE
  8
LAYER_1
 62
1
 70
1
 66
1
  0
VERTEX
  8
LAYER_1
 62
7
 10
26.448314
 20
2.437327
 42
0.039789
  0
VERTEX
  8
LAYER_1
 62
7
 10
26.412807
 20
2.435810
 42
0.267660
  0
VERTEX
  8
LAYER_1
 62
7
 10
26.403797
 20
2.427826
 42
0.057261
  0
VERTEX
  8
LAYER_1
 62
7
 10
26.402191
 20
2.418559
  0
VERTEX
  8
LAYER_1
 62
7
 10
26.401656
 20
2.403159
 42
0.051132
  0
VERTEX
  8
LAYER_1
 62
7
 10
26.402815
 20
2.387011
 42
0.172946
  0
VERTEX
  8
LAYER_1
 62
7
 10
26.407298
 20
2.379718
 42
0.138653
  0
VERTEX
  8
LAYER_1
 62
7
 10
26.416286
 20
2.376395
 42
0.026177
  0
VERTEX
  8
LAYER_1
 62
7
 10
26.448492
 20
2.375324
 42
0.021595
  0
VERTEX
  8
LAYER_1
 62
7
 10
26.478289
 20
2.376127
 42
0.134581
  0
VERTEX
  8
LAYER_1
 62
7
 10
26.489262
 20
2.379696
 42
0.174118
  0
VERTEX
  8
LAYER_1
 62
7
 10
26.493634
 20
2.387056
 42
0.052226
  0
VERTEX
  8
LAYER_1
 62
7
 10
26.494794
 20
2.402980
 42
0.032481
  0
VERTEX
  8
LAYER_1
 62
7
 10
26.493901
 20
2.422250
 42
0.121002
  0
VERTEX
  8
LAYER_1
 62
7
 10
26.490690
 20
2.431528
 42
0.203650
  0
VERTEX
  8
LAYER_1
 62
7
 10
26.480966
 20
2.436390
 42
0.024824
  0
VERTEX
  8
LAYER_1
 62
7
 10
26.448314
 20
2.437327
  0
SEQEND
  0
POLYLINE
  8
LAYER_1
 62
1
 70
1
 66
1
  0
VERTEX
  8
LAYER_1
 62
7
 10
26.659810
 20
2.467213
  0
VERTEX
  8
LAYER_1
 62
7
 10
26.724846
 20
2.467213
  0
VERTEX
  8
LAYER_1
 62
7
 10
26.788633
 20
2.376395
  0
VERTEX
  8
LAYER_1
 62
7
 10
26.792469
 20
2.376395
  0
VERTEX
  8
LAYER_1
 62
7
 10
26.791577
 20
2.467213
  0
VERTEX
  8
LAYER_1
 62
7
 10
26.829314
 20
2.467213
  0
VERTEX
  8
LAYER_1
 62
7
 10
26.829314
 20
2.345438
  0
VERTEX
  8
LAYER_1
 62
7
 10
26.764813
 20
2.345438
  0
VERTEX
  8
LAYER_1
 62
7
 10
26.700759
 20
2.436256
  0
VERTEX
  8
LAYER_1
 62
7
 10
26.696744
 20
2.436256
  0
VERTEX
  8
LAYER_1
 62
7
 10
26.697547
 20
2.345438
  0
VERTEX
  8
LAYER_1
 62
7
 10
26.659810
 20
2.345438
  0
VERTEX
  8
LAYER_1
 62
7
 10
26.659810
 20
2.467213
  0
SEQEND
  0
POLYLINE
  8
LAYER_1
 62
0
 70
1
 66
1
  0
VERTEX
  8
LAYER_1
 62
7
 10
29.583236
 20
1.023826
 42
0.199589
  0
VERTEX
  8
LAYER_1
 62
7
 10
29.628904
 20
1.042742
 42
0.199589
  0
VERTEX
  8
LAYER_1
 62
7
 10
29.647820
 20
1.088409
  0
VERTEX
  8
LAYER_1
 62
7
 10
29.647820
 20
4.834242
 42
0.199589
  0
VERTEX
  8
LAYER_1
 62
7
 10
29.628904
 20
4.879910
 42
0.199589
  0
VERTEX
  8
LAYER_1
 62
7
 10
29.583236
 20
4.898826
  0
VERTEX
  8
LAYER_1
 62
7
 10
27.774903
 20
4.898826
 42
0.199589
  0
VERTEX
  8
LAYER_1
 62
7
 10
27.729236
 20
4.879910
 42
0.199589
  0
VERTEX
  8
LAYER_1
 62
7
 10
27.710320
 20
4.834242
  0
VERTEX
  8
LAYER_1
 62
7
 10
27.710320
 20
1.088409
 42
0.168014
  0
VERTEX
  8
LAYER_1
 62
7
 10
27.720411
 20
1.063270
 42
0.068280
  0
VERTEX
  8
LAYER_1
 62
7
 10
27.742611
 20
1.042742
 42
0.045771
  0
VERTEX
  8
LAYER_1
 62
7
 10
27.774903
 20
1.023826
  0
VERTEX
  8
LAYER_1
 62
7
 10
29.583236
 20
1.023826
  0
SEQEND
  0
POLYLINE
  8
LAYER_1
 62
1
 70
1
 66
1
  0
VERTEX
  8
LAYER_1
 62
7
 10
29.328132
 20
4.015340
  0
VERTEX
  8
LAYER_1
 62
7
 10
28.030007
 20
4.015340
 42
0.199589
  0
VERTEX
  8
LAYER_1
 62
7
 10
27.984340
 20
3.996424
 42
0.199589
  0
VERTEX
  8
LAYER_1
 62
7
 10
27.965424
 20
3.950756
  0
VERTEX
  8
LAYER_1
 62
7
 10
27.965424
 20
2.662319
 42
0.199589
  0
VERTEX
  8
LAYER_1
 62
7
 10
27.984340
 20
2.616651
 42
0.199589
  0
VERTEX
  8
LAYER_1
 62
7
 10
28.030007
 20
2.597735
  0
VERTEX
  8
LAYER_1
 62
7
 10
29.328132
 20
2.597735
 42
0.199589
  0
VERTEX
  8
LAYER_1
 62
7
 10
29.373800
 20
2.616651
 42
0.199589
  0
VERTEX
  8
LAYER_1
 62
7
 10
29.392716
 20
2.662319
  0
VERTEX
  8
LAYER_1
 62
7
 10
29.392716
 20
3.950756
 42
0.199589
  0
VERTEX
  8
LAYER_1
 62
7
 10
29.373800
 20
3.996424
 42
0.199589
  0
VERTEX
  8
LAYER_1
 62
7
 10
29.328132
 20
4.015340
  0
SEQEND
  0
POLYLINE
  8
LAYER_1
 62
0
 70
1
 66
1
  0
VERTEX
  8
LAYER_1
 62
7
 10
28.097820
 20
3.946881
  0
VERTEX
  8
LAYER_1
 62
7
 10
29.254201
 20
3.946881
  0
VERTEX
  8
LAYER_1
 62
7
 10
29.254201
 20
3.855755
  0
VERTEX
  8
LAYER_1
 62
7
 10
28.411389
 20
3.855755
  0
VERTEX
  8
LAYER_1
 62
7
 10
28.411389
 20
3.799830
  0
VERTEX
  8
LAYER_1
 62
7
 10
29.211372
 20
3.799830
  0
VERTEX
  8
LAYER_1
 62
7
 10
29.211372
 20
3.714665
  0
VERTEX
  8
LAYER_1
 62
7
 10
28.411389
 20
3.714665
  0
VERTEX
  8
LAYER_1
 62
7
 10
28.411389
 20
3.652495
  0
VERTEX
  8
LAYER_1
 62
7
 10
29.260320
 20
3.652495
  0
VERTEX
  8
LAYER_1
 62
7
 10
29.260320
 20
3.559381
  0
VERTEX
  8
LAYER_1
 62
7
 10
28.097820
 20
3.559381
  0
VERTEX
  8
LAYER_1
 62
7
 10
28.097820
 20
3.946881
  0
SEQEND
  0
POLYLINE
  8
LAYER_1
 62
0
 70
1
 66
1
  0
VERTEX
  8
LAYER_1
 62
7
 10
28.097820
 20
3.503194
  0
VERTEX
  8
LAYER_1
 62
7
 10
28.366134
 20
3.503194
  0
VERTEX
  8
LAYER_1
 62
7
 10
28.658521
 20
3.213066
  0
VERTEX
  8
LAYER_1
 62
7
 10
28.704316
 20
3.213066
  0
VERTEX
  8
LAYER_1
 62
7
 10
28.993767
 20
3.503194
  0
VERTEX
  8
LAYER_1
 62
7
 10
29.260320
 20
3.503194
  0
VERTEX
  8
LAYER_1
 62
7
 10
28.869297
 20
3.115694
  0
VERTEX
  8
LAYER_1
 62
7
 10
28.494127
 20
3.115694
  0
VERTEX
  8
LAYER_1
 62
7
 10
28.097820
 20
3.503194
  0
SEQEND
  0
POLYLINE
  8
LAYER_1
 62
0
 70
1
 66
1
  0
VERTEX
  8
LAYER_1
 62
7
 10
28.679070
 20
3.065319
 42
-0.012709
  0
VERTEX
  8
LAYER_1
 62
7
 10
29.055829
 20
3.059069
 42
-0.068000
  0
VERTEX
  8
LAYER_1
 62
7
 10
29.175270
 20
3.038403
 42
-0.172905
  0
VERTEX
  8
LAYER_1
 62
7
 10
29.237392
 20
2.994584
 42
-0.089880
  0
VERTEX
  8
LAYER_1
 62
7
 10
29.254588
 20
2.943380
 42
-0.043314
  0
VERTEX
  8
LAYER_1
 62
7
 10
29.260320
 20
2.865898
 42
-0.043215
  0
VERTEX
  8
LAYER_1
 62
7
 10
29.254588
 20
2.788204
 42
-0.089947
  0
VERTEX
  8
LAYER_1
 62
7
 10
29.237392
 20
2.736928
 42
-0.172905
  0
VERTEX
  8
LAYER_1
 62
7
 10
29.175270
 20
2.693110
 42
-0.068000
  0
VERTEX
  8
LAYER_1
 62
7
 10
29.055829
 20
2.672443
 42
-0.012750
  0
VERTEX
  8
LAYER_1
 62
7
 10
28.681548
 20
2.666194
 42
-0.012668
  0
VERTEX
  8
LAYER_1
 62
7
 10
28.302311
 20
2.672443
 42
-0.068000
  0
VERTEX
  8
LAYER_1
 62
7
 10
28.182869
 20
2.693110
 42
-0.172905
  0
VERTEX
  8
LAYER_1
 62
7
 10
28.120748
 20
2.736928
 42
-0.090463
  0
VERTEX
  8
LAYER_1
 62
7
 10
28.103552
 20
2.788772
 42
-0.042437
  0
VERTEX
  8
LAYER_1
 62
7
 10
28.097820
 20
2.868171
 42
-0.044106
  0
VERTEX
  8
LAYER_1
 62
7
 10
28.103552
 20
2.944090
 42
-0.090088
  0
VERTEX
  8
LAYER_1
 62
7
 10
28.120748
 20
2.994584
 42
-0.172905
  0
VERTEX
  8
LAYER_1
 62
7
 10
28.182869
 20
3.038403
 42
-0.068000
  0
VERTEX
  8
LAYER_1
 62
7
 10
28.302311
 20
3.059069
 42
-0.012748
  0
VERTEX
  8
LAYER_1
 62
7
 10
28.679070
 20
3.065319
  0
SEQEND
  0
POLYLINE
  8
LAYER_1
 62
0
 70
1
 66
1
  0
VERTEX
  8
LAYER_1
 62
7
 10
28.679689
 20
2.964472
 42
0.018285
  0
VERTEX
  8
LAYER_1
 62
7
 10
28.433061
 20
2.959643
 42
0.065672
  0
VERTEX
  8
LAYER_1
 62
7
 10
28.393557
 20
2.950446
 42
0.135560
  0
VERTEX
  8
LAYER_1
 62
7
 10
28.370474
 20
2.934218
 42
0.111542
  0
VERTEX
  8
LAYER_1
 62
7
 10
28.359320
 20
2.904710
 42
0.045619
  0
VERTEX
  8
LAYER_1
 62
7
 10
28.355602
 20
2.855672
 42
0.038229
  0
VERTEX
  8
LAYER_1
 62
7
 10
28.357616
 20
2.825063
 42
0.076859
  0
VERTEX
  8
LAYER_1
 62
7
 10
28.363658
 20
2.804254
 42
0.187934
  0
VERTEX
  8
LAYER_1
 62
7
 10
28.394796
 20
2.781031
 42
0.070760
  0
VERTEX
  8
LAYER_1
 62
7
 10
28.457228
 20
2.770449
 42
0.012015
  0
VERTEX
  8
LAYER_1
 62
7
 10
28.680929
 20
2.767040
 42
0.009908
  0
VERTEX
  8
LAYER_1
 62
7
 10
28.887898
 20
2.769597
 42
0.067427
  0
VERTEX
  8
LAYER_1
 62
7
 10
28.964118
 20
2.780960
 42
0.192612
  0
VERTEX
  8
LAYER_1
 62
7
 10
28.994482
 20
2.804396
 42
0.078983
  0
VERTEX
  8
LAYER_1
 62
7
 10
29.000523
 20
2.824814
 42
0.038733
  0
VERTEX
  8
LAYER_1
 62
7
 10
29.002537
 20
2.855103
 42
0.070140
  0
VERTEX
  8
LAYER_1
 62
7
 10
28.996341
 20
2.916464
 42
0.185573
  0
VERTEX
  8
LAYER_1
 62
7
 10
28.974032
 20
2.946007
 42
0.079454
  0
VERTEX
  8
LAYER_1
 62
7
 10
28.946922
 20
2.956128
 42
0.039884
  0
VERTEX
  8
LAYER_1
 62
7
 10
28.906488
 20
2.961489
 42
0.011391
  0
VERTEX
  8
LAYER_1
 62
7
 10
28.679689
 20
2.964472
  0
SEQEND
  0
POLYLINE
  8
LAYER_1
 62
7
 70
1
 66
1
  0
VERTEX
  8
LAYER_1
 62
7
 10
29.227768
 20
1.507787
 42
0.199589
  0
VERTEX
  8
LAYER_1
 62
7
 10
29.208730
 20
1.553748
 42
0.199589
  0
VERTEX
  8
LAYER_1
 62
7
 10
29.162768
 20
1.572787
 42
0.199589
  0
VERTEX
  8
LAYER_1
 62
7
 10
29.116806
 20
1.553748
 42
0.199589
  0
VERTEX
  8
LAYER_1
 62
7
 10
29.097768
 20
1.507787
 42
0.199589
  0
VERTEX
  8
LAYER_1
 62
7
 10
29.116806
 20
1.461825
 42
0.199589
  0
VERTEX
  8
LAYER_1
 62
7
 10
29.162768
 20
1.442787
 42
0.199589
  0
VERTEX
  8
LAYER_1
 62
7
 10
29.208730
 20
1.461825
 42
0.199589
  0
VERTEX
  8
LAYER_1
 62
7
 10
29.227768
 20
1.507787
  0
SEQEND
  0
POLYLINE
  8
LAYER_1
 62
7
 70
1
 66
1
  0
VERTEX
  8
LAYER_1
 62
7
 10
29.228092
 20
4.414369
 42
0.199589
  0
VERTEX
  8
LAYER_1
 62
7
 10
29.209054
 20
4.460331
 42
0.199589
  0
VERTEX
  8
LAYER_1
 62
7
 10
29.163092
 20
4.479369
 42
0.199589
  0
VERTEX
  8
LAYER_1
 62
7
 10
29.117130
 20
4.460331
 42
0.199589
  0
VERTEX
  8
LAYER_1
 62
7
 10
29.098092
 20
4.414369
 42
0.199589
  0
VERTEX
  8
LAYER_1
 62
7
 10
29.117130
 20
4.368407
 42
0.199589
  0
VERTEX
  8
LAYER_1
 62
7
 10
29.163092
 20
4.349369
 42
0.199589
  0
VERTEX
  8
LAYER_1
 62
7
 10
29.209054
 20
4.368407
 42
0.199589
  0
VERTEX
  8
LAYER_1
 62
7
 10
29.228092
 20
4.414369
  0
SEQEND
  0
POLYLINE
  8
LAYER_1
 62
7
 70
1
 66
1
  0
VERTEX
  8
LAYER_1
 62
7
 10
28.259649
 20
4.414736
 42
0.199589
  0
VERTEX
  8
LAYER_1
 62
7
 10
28.240611
 20
4.460698
 42
0.199589
  0
VERTEX
  8
LAYER_1
 62
7
 10
28.194649
 20
4.479736
 42
0.199589
  0
VERTEX
  8
LAYER_1
 62
7
 10
28.148687
 20
4.460698
 42
0.199589
  0
VERTEX
  8
LAYER_1
 62
7
 10
28.129649
 20
4.414736
 42
0.199589
  0
VERTEX
  8
LAYER_1
 62
7
 10
28.148687
 20
4.368774
 42
0.199589
  0
VERTEX
  8
LAYER_1
 62
7
 10
28.194649
 20
4.349736
 42
0.199589
  0
VERTEX
  8
LAYER_1
 62
7
 10
28.240611
 20
4.368774
 42
0.199589
  0
VERTEX
  8
LAYER_1
 62
7
 10
28.259649
 20
4.414736
  0
SEQEND
  0
POLYLINE
  8
LAYER_1
 62
7
 70
1
 66
1
  0
VERTEX
  8
LAYER_1
 62
7
 10
28.259615
 20
1.507871
 42
0.199589
  0
VERTEX
  8
LAYER_1
 62
7
 10
28.240577
 20
1.553832
 42
0.199589
  0
VERTEX
  8
LAYER_1
 62
7
 10
28.194615
 20
1.572871
 42
0.199589
  0
VERTEX
  8
LAYER_1
 62
7
 10
28.148653
 20
1.553832
 42
0.199589
  0
VERTEX
  8
LAYER_1
 62
7
 10
28.129615
 20
1.507871
 42
0.199589
  0
VERTEX
  8
LAYER_1
 62
7
 10
28.148653
 20
1.461909
 42
0.199589
  0
VERTEX
  8
LAYER_1
 62
7
 10
28.194615
 20
1.442871
 42
0.199589
  0
VERTEX
  8
LAYER_1
 62
7
 10
28.240577
 20
1.461909
 42
0.199589
  0
VERTEX
  8
LAYER_1
 62
7
 10
28.259615
 20
1.507871
  0
SEQEND
  0
POLYLINE
  8
LAYER_1
 62
1
 70
1
 66
1
  0
VERTEX
  8
LAYER_1
 62
7
 10
27.965570
 20
2.467213
  0
VERTEX
  8
LAYER_1
 62
7
 10
28.004556
 20
2.467213
  0
VERTEX
  8
LAYER_1
 62
7
 10
28.004556
 20
2.376484
  0
VERTEX
  8
LAYER_1
 62
7
 10
28.091181
 20
2.376484
  0
VERTEX
  8
LAYER_1
 62
7
 10
28.091181
 20
2.345438
  0
VERTEX
  8
LAYER_1
 62
7
 10
27.965570
 20
2.345438
  0
VERTEX
  8
LAYER_1
 62
7
 10
27.965570
 20
2.467213
  0
SEQEND
  0
POLYLINE
  8
LAYER_1
 62
1
 70
1
 66
1
  0
VERTEX
  8
LAYER_1
 62
7
 10
28.212305
 20
2.467213
  0
VERTEX
  8
LAYER_1
 62
7
 10
28.249417
 20
2.467213
  0
VERTEX
  8
LAYER_1
 62
7
 10
28.249417
 20
2.411277
 42
0.035344
  0
VERTEX
  8
LAYER_1
 62
7
 10
28.250756
 20
2.386922
 42
0.304015
  0
VERTEX
  8
LAYER_1
 62
7
 10
28.259989
 20
2.377555
 42
0.047936
  0
VERTEX
  8
LAYER_1
 62
7
 10
28.271776
 20
2.375882
  0
VERTEX
  8
LAYER_1
 62
7
 10
28.291526
 20
2.375324
 42
0.031574
  0
VERTEX
  8
LAYER_1
 62
7
 10
28.318245
 20
2.376439
 42
0.061214
  0
VERTEX
  8
LAYER_1
 62
7
 10
28.324613
 20
2.378101
 42
0.104817
  0
VERTEX
  8
LAYER_1
 62
7
 10
28.328817
 20
2.380855
 42
0.120269
  0
VERTEX
  8
LAYER_1
 62
7
 10
28.331716
 20
2.386476
 42
0.042782
  0
VERTEX
  8
LAYER_1
 62
7
 10
28.333010
 20
2.397806
  0
VERTEX
  8
LAYER_1
 62
7
 10
28.333456
 20
2.411277
  0
VERTEX
  8
LAYER_1
 62
7
 10
28.333456
 20
2.467213
  0
VERTEX
  8
LAYER_1
 62
7
 10
28.370568
 20
2.467213
  0
VERTEX
  8
LAYER_1
 62
7
 10
28.370568
 20
2.411277
 42
-0.022646
  0
VERTEX
  8
LAYER_1
 62
7
 10
28.368695
 20
2.373094
 42
-0.242486
  0
VERTEX
  8
LAYER_1
 62
7
 10
28.354064
 20
2.350612
 42
-0.101447
  0
VERTEX
  8
LAYER_1
 62
7
 10
28.334169
 20
2.345081
  0
VERTEX
  8
LAYER_1
 62
7
 10
28.291972
 20
2.343654
  0
VERTEX
  8
LAYER_1
 62
7
 10
28.257982
 20
2.344457
 42
-0.039804
  0
VERTEX
  8
LAYER_1
 62
7
 10
28.237195
 20
2.347311
 42
-0.144668
  0
VERTEX
  8
LAYER_1
 62
7
 10
28.221717
 20
2.355519
 42
-0.153147
  0
VERTEX
  8
LAYER_1
 62
7
 10
28.214357
 20
2.370864
  0
VERTEX
  8
LAYER_1
 62
7
 10
28.212796
 20
2.383978
  0
VERTEX
  8
LAYER_1
 62
7
 10
28.212305
 20
2.411277
  0
VERTEX
  8
LAYER_1
 62
7
 10
28.212305
 20
2.467213
  0
SEQEND
  0
POLYLINE
  8
LAYER_1
 62
1
 70
1
 66
1
  0
VERTEX
  8
LAYER_1
 62
7
 10
28.491781
 20
2.467213
  0
VERTEX
  8
LAYER_1
 62
7
 10
28.639161
 20
2.467213
  0
VERTEX
  8
LAYER_1
 62
7
 10
28.639161
 20
2.436167
  0
VERTEX
  8
LAYER_1
 62
7
 10
28.585008
 20
2.436167
  0
VERTEX
  8
LAYER_1
 62
7
 10
28.585008
 20
2.345438
  0
VERTEX
  8
LAYER_1
 62
7
 10
28.546023
 20
2.345438
  0
VERTEX
  8
LAYER_1
 62
7
 10
28.546023
 20
2.436167
  0
VERTEX
  8
LAYER_1
 62
7
 10
28.491781
 20
2.436167
  0
VERTEX
  8
LAYER_1
 62
7
 10
28.491781
 20
2.467213
  0
SEQEND
  0
POLYLINE
  8
LAYER_1
 62
1
 70
1
 66
1
  0
VERTEX
  8
LAYER_1
 62
7
 10
28.760998
 20
2.467213
  0
VERTEX
  8
LAYER_1
 62
7
 10
28.799984
 20
2.467213
  0
VERTEX
  8
LAYER_1
 62
7
 10
28.799984
 20
2.345438
  0
VERTEX
  8
LAYER_1
 62
7
 10
28.760998
 20
2.345438
  0
VERTEX
  8
LAYER_1
 62
7
 10
28.760998
 20
2.467213
  0
SEQEND
  0
POLYLINE
  8
LAYER_1
 62
1
 70
1
 66
1
  0
VERTEX
  8
LAYER_1
 62
7
 10
29.011480
 20
2.468997
 42
-0.027684
  0
VERTEX
  8
LAYER_1
 62
7
 10
29.065722
 20
2.467035
 42
-0.132803
  0
VERTEX
  8
LAYER_1
 62
7
 10
29.082917
 20
2.460545
 42
-0.165850
  0
VERTEX
  8
LAYER_1
 62
7
 10
29.091861
 20
2.446783
 42
-0.059496
  0
VERTEX
  8
LAYER_1
 62
7
 10
29.095162
 20
2.406370
 42
-0.059438
  0
VERTEX
  8
LAYER_1
 62
7
 10
29.091861
 20
2.365868
 42
-0.165850
  0
VERTEX
  8
LAYER_1
 62
7
 10
29.082917
 20
2.352107
 42
-0.132803
  0
VERTEX
  8
LAYER_1
 62
7
 10
29.065722
 20
2.345616
 42
-0.027773
  0
VERTEX
  8
LAYER_1
 62
7
 10
29.011837
 20
2.343654
 42
-0.027595
  0
VERTEX
  8
LAYER_1
 62
7
 10
28.957239
 20
2.345616
 42
-0.132803
  0
VERTEX
  8
LAYER_1
 62
7
 10
28.940043
 20
2.352107
 42
-0.165850
  0
VERTEX
  8
LAYER_1
 62
7
 10
28.931100
 20
2.365868
 42
-0.058976
  0
VERTEX
  8
LAYER_1
 62
7
 10
28.927799
 20
2.407084
 42
-0.060208
  0
VERTEX
  8
LAYER_1
 62
7
 10
28.931100
 20
2.446783
 42
-0.165850
  0
VERTEX
  8
LAYER_1
 62
7
 10
28.940043
 20
2.460545
 42
-0.132803
  0
VERTEX
  8
LAYER_1
 62
7
 10
28.957239
 20
2.467035
 42
-0.027768
  0
VERTEX
  8
LAYER_1
 62
7
 10
29.011480
 20
2.468997
  0
SEQEND
  0
POLYLINE
  8
LAYER_1
 62
1
 70
1
 66
1
  0
VERTEX
  8
LAYER_1
 62
7
 10
29.011570
 20
2.437327
 42
0.039789
  0
VERTEX
  8
LAYER_1
 62
7
 10
28.976063
 20
2.435810
 42
0.267660
  0
VERTEX
  8
LAYER_1
 62
7
 10
28.967052
 20
2.427826
 42
0.057261
  0
VERTEX
  8
LAYER_1
 62
7
 10
28.965447
 20
2.418559
  0
VERTEX
  8
LAYER_1
 62
7
 10
28.964911
 20
2.403159
 42
0.051132
  0
VERTEX
  8
LAYER_1
 62
7
 10
28.966071
 20
2.387011
 42
0.172946
  0
VERTEX
  8
LAYER_1
 62
7
 10
28.970554
 20
2.379718
 42
0.138653
  0
VERTEX
  8
LAYER_1
 62
7
 10
28.979542
 20
2.376395
 42
0.026177
  0
VERTEX
  8
LAYER_1
 62
7
 10
29.011748
 20
2.375324
 42
0.021595
  0
VERTEX
  8
LAYER_1
 62
7
 10
29.041545
 20
2.376127
 42
0.134581
  0
VERTEX
  8
LAYER_1
 62
7
 10
29.052518
 20
2.379696
 42
0.174118
  0
VERTEX
  8
LAYER_1
 62
7
 10
29.056890
 20
2.387056
 42
0.052226
  0
VERTEX
  8
LAYER_1
 62
7
 10
29.058049
 20
2.402980
 42
0.032481
  0
VERTEX
  8
LAYER_1
 62
7
 10
29.057157
 20
2.422250
 42
0.121002
  0
VERTEX
  8
LAYER_1
 62
7
 10
29.053946
 20
2.431528
 42
0.203650
  0
VERTEX
  8
LAYER_1
 62
7
 10
29.044221
 20
2.436390
 42
0.024824
  0
VERTEX
  8
LAYER_1
 62
7
 10
29.011570
 20
2.437327
  0
SEQEND
  0
POLYLINE
  8
LAYER_1
 62
1
 70
1
 66
1
  0
VERTEX
  8
LAYER_1
 62
7
 10
29.223066
 20
2.467213
  0
VERTEX
  8
LAYER_1
 62
7
 10
29.288102
 20
2.467213
  0
VERTEX
  8
LAYER_1
 62
7
 10
29.351889
 20
2.376395
  0
VERTEX
  8
LAYER_1
 62
7
 10
29.355725
 20
2.376395
  0
VERTEX
  8
LAYER_1
 62
7
 10
29.354833
 20
2.467213
  0
VERTEX
  8
LAYER_1
 62
7
 10
29.392570
 20
2.467213
  0
VERTEX
  8
LAYER_1
 62
7
 10
29.392570
 20
2.345438
  0
VERTEX
  8
LAYER_1
 62
7
 10
29.328069
 20
2.345438
  0
VERTEX
  8
LAYER_1
 62
7
 10
29.264014
 20
2.436256
  0
VERTEX
  8
LAYER_1
 62
7
 10
29.260000
 20
2.436256
  0
VERTEX
  8
LAYER_1
 62
7
 10
29.260803
 20
2.345438
  0
VERTEX
  8
LAYER_1
 62
7
 10
29.223066
 20
2.345438
  0
VERTEX
  8
LAYER_1
 62
7
 10
29.223066
 20
2.467213
  0
SEQEND
  0
POLYLINE
  8
LAYER_1
 62
0
 70
1
 66
1
  0
VERTEX
  8
LAYER_1
 62
7
 10
32.161841
 20
1.023826
 42
0.199589
  0
VERTEX
  8
LAYER_1
 62
7
 10
32.207508
 20
1.042742
 42
0.199589
  0
VERTEX
  8
LAYER_1
 62
7
 10
32.226424
 20
1.088409
  0
VERTEX
  8
LAYER_1
 62
7
 10
32.226424
 20
4.834242
 42
0.199589
  0
VERTEX
  8
LAYER_1
 62
7
 10
32.207508
 20
4.879910
 42
0.199589
  0
VERTEX
  8
LAYER_1
 62
7
 10
32.161841
 20
4.898826
  0
VERTEX
  8
LAYER_1
 62
7
 10
30.353508
 20
4.898826
 42
0.199589
  0
VERTEX
  8
LAYER_1
 62
7
 10
30.307840
 20
4.879910
 42
0.199589
  0
VERTEX
  8
LAYER_1
 62
7
 10
30.288924
 20
4.834242
  0
VERTEX
  8
LAYER_1
 62
7
 10
30.288924
 20
1.088409
 42
0.168014
  0
VERTEX
  8
LAYER_1
 62
7
 10
30.299016
 20
1.063270
 42
0.068280
  0
VERTEX
  8
LAYER_1
 62
7
 10
30.321216
 20
1.042742
 42
0.045771
  0
VERTEX
  8
LAYER_1
 62
7
 10
30.353508
 20
1.023826
  0
VERTEX
  8
LAYER_1
 62
7
 10
32.161841
 20
1.023826
  0
SEQEND
  0
POLYLINE
  8
LAYER_1
 62
1
 70
1
 66
1
  0
VERTEX
  8
LAYER_1
 62
7
 10
31.906737
 20
4.015340
  0
VERTEX
  8
LAYER_1
 62
7
 10
30.608612
 20
4.015340
 42
0.199589
  0
VERTEX
  8
LAYER_1
 62
7
 10
30.562945
 20
3.996424
 42
0.199589
  0
VERTEX
  8
LAYER_1
 62
7
 10
30.544029
 20
3.950756
  0
VERTEX
  8
LAYER_1
 62
7
 10
30.544029
 20
2.662319
 42
0.199589
  0
VERTEX
  8
LAYER_1
 62
7
 10
30.562945
 20
2.616651
 42
0.199589
  0
VERTEX
  8
LAYER_1
 62
7
 10
30.608612
 20
2.597735
  0
VERTEX
  8
LAYER_1
 62
7
 10
31.906737
 20
2.597735
 42
0.199589
  0
VERTEX
  8
LAYER_1
 62
7
 10
31.952404
 20
2.616651
 42
0.199589
  0
VERTEX
  8
LAYER_1
 62
7
 10
31.971320
 20
2.662319
  0
VERTEX
  8
LAYER_1
 62
7
 10
31.971320
 20
3.950756
 42
0.199589
  0
VERTEX
  8
LAYER_1
 62
7
 10
31.952404
 20
3.996424
 42
0.199589
  0
VERTEX
  8
LAYER_1
 62
7
 10
31.906737
 20
4.015340
  0
SEQEND
  0
POLYLINE
  8
LAYER_1
 62
0
 70
1
 66
1
  0
VERTEX
  8
LAYER_1
 62
7
 10
30.676424
 20
3.946881
  0
VERTEX
  8
LAYER_1
 62
7
 10
31.832806
 20
3.946881
  0
VERTEX
  8
LAYER_1
 62
7
 10
31.832806
 20
3.855755
  0
VERTEX
  8
LAYER_1
 62
7
 10
30.989993
 20
3.855755
  0
VERTEX
  8
LAYER_1
 62
7
 10
30.989993
 20
3.799830
  0
VERTEX
  8
LAYER_1
 62
7
 10
31.789977
 20
3.799830
  0
VERTEX
  8
LAYER_1
 62
7
 10
31.789977
 20
3.714665
  0
VERTEX
  8
LAYER_1
 62
7
 10
30.989993
 20
3.714665
  0
VERTEX
  8
LAYER_1
 62
7
 10
30.989993
 20
3.652495
  0
VERTEX
  8
LAYER_1
 62
7
 10
31.838924
 20
3.652495
  0
VERTEX
  8
LAYER_1
 62
7
 10
31.838924
 20
3.559381
  0
VERTEX
  8
LAYER_1
 62
7
 10
30.676424
 20
3.559381
  0
VERTEX
  8
LAYER_1
 62
7
 10
30.676424
 20
3.946881
  0
SEQEND
  0
POLYLINE
  8
LAYER_1
 62
0
 70
1
 66
1
  0
VERTEX
  8
LAYER_1
 62
7
 10
30.676424
 20
3.503194
  0
VERTEX
  8
LAYER_1
 62
7
 10
30.944739
 20
3.503194
  0
VERTEX
  8
LAYER_1
 62
7
 10
31.237125
 20
3.213066
  0
VERTEX
  8
LAYER_1
 62
7
 10
31.282921
 20
3.213066
  0
VERTEX
  8
LAYER_1
 62
7
 10
31.572371
 20
3.503194
  0
VERTEX
  8
LAYER_1
 62
7
 10
31.838924
 20
3.503194
  0
VERTEX
  8
LAYER_1
 62
7
 10
31.447902
 20
3.115694
  0
VERTEX
  8
LAYER_1
 62
7
 10
31.072731
 20
3.115694
  0
VERTEX
  8
LAYER_1
 62
7
 10
30.676424
 20
3.503194
  0
SEQEND
  0
POLYLINE
  8
LAYER_1
 62
0
 70
1
 66
1
  0
VERTEX
  8
LAYER_1
 62
7
 10
31.257674
 20
3.065319
 42
-0.012709
  0
VERTEX
  8
LAYER_1
 62
7
 10
31.634433
 20
3.059069
 42
-0.068000
  0
VERTEX
  8
LAYER_1
 62
7
 10
31.753875
 20
3.038403
 42
-0.172905
  0
VERTEX
  8
LAYER_1
 62
7
 10
31.815997
 20
2.994584
 42
-0.089880
  0
VERTEX
  8
LAYER_1
 62
7
 10
31.833192
 20
2.943380
 42
-0.043314
  0
VERTEX
  8
LAYER_1
 62
7
 10
31.838924
 20
2.865898
 42
-0.043215
  0
VERTEX
  8
LAYER_1
 62
7
 10
31.833192
 20
2.788204
 42
-0.089947
  0
VERTEX
  8
LAYER_1
 62
7
 10
31.815997
 20
2.736928
 42
-0.172905
  0
VERTEX
  8
LAYER_1
 62
7
 10
31.753875
 20
2.693110
 42
-0.068000
  0
VERTEX
  8
LAYER_1
 62
7
 10
31.634433
 20
2.672443
 42
-0.012750
  0
VERTEX
  8
LAYER_1
 62
7
 10
31.260153
 20
2.666194
 42
-0.012668
  0
VERTEX
  8
LAYER_1
 62
7
 10
30.880915
 20
2.672443
 42
-0.068000
  0
VERTEX
  8
LAYER_1
 62
7
 10
30.761474
 20
2.693110
 42
-0.172905
  0
VERTEX
  8
LAYER_1
 62
7
 10
30.699352
 20
2.736928
 42
-0.090463
  0
VERTEX
  8
LAYER_1
 62
7
 10
30.682156
 20
2.788772
 42
-0.042437
  0
VERTEX
  8
LAYER_1
 62
7
 10
30.676424
 20
2.868171
 42
-0.044106
  0
VERTEX
  8
LAYER_1
 62
7
 10
30.682156
 20
2.944090
 42
-0.090088
  0
VERTEX
  8
LAYER_1
 62
7
 10
30.699352
 20
2.994584
 42
-0.172905
  0
VERTEX
  8
LAYER_1
 62
7
 10
30.761474
 20
3.038403
 42
-0.068000
  0
VERTEX
  8
LAYER_1
 62
7
 10
30.880915
 20
3.059069
 42
-0.012748
  0
VERTEX
  8
LAYER_1
 62
7
 10
31.257674
 20
3.065319
  0
SEQEND
  0
POLYLINE
  8
LAYER_1
 62
0
 70
1
 66
1
  0
VERTEX
  8
LAYER_1
 62
7
 10
31.258294
 20
2.964472
 42
0.018285
  0
VERTEX
  8
LAYER_1
 62
7
 10
31.011666
 20
2.959643
 42
0.065672
  0
VERTEX
  8
LAYER_1
 62
7
 10
30.972162
 20
2.950446
 42
0.135560
  0
VERTEX
  8
LAYER_1
 62
7
 10
30.949079
 20
2.934218
 42
0.111542
  0
VERTEX
  8
LAYER_1
 62
7
 10
30.937925
 20
2.904710
 42
0.045619
  0
VERTEX
  8
LAYER_1
 62
7
 10
30.934207
 20
2.855672
 42
0.038229
  0
VERTEX
  8
LAYER_1
 62
7
 10
30.936221
 20
2.825063
 42
0.076859
  0
VERTEX
  8
LAYER_1
 62
7
 10
30.942263
 20
2.804254
 42
0.187934
  0
VERTEX
  8
LAYER_1
 62
7
 10
30.973401
 20
2.781031
 42
0.070760
  0
VERTEX
  8
LAYER_1
 62
7
 10
31.035833
 20
2.770449
 42
0.012015
  0
VERTEX
  8
LAYER_1
 62
7
 10
31.259533
 20
2.767040
 42
0.009908
  0
VERTEX
  8
LAYER_1
 62
7
 10
31.466503
 20
2.769597
 42
0.067427
  0
VERTEX
  8
LAYER_1
 62
7
 10
31.542722
 20
2.780960
 42
0.192612
  0
VERTEX
  8
LAYER_1
 62
7
 10
31.573086
 20
2.804396
 42
0.078983
  0
VERTEX
  8
LAYER_1
 62
7
 10
31.579128
 20
2.824814
 42
0.038733
  0
VERTEX
  8
LAYER_1
 62
7
 10
31.581142
 20
2.855103
 42
0.070140
  0
VERTEX
  8
LAYER_1
 62
7
 10
31.574945
 20
2.916464
 42
0.185573
  0
VERTEX
  8
LAYER_1
 62
7
 10
31.552637
 20
2.946007
 42
0.079454
  0
VERTEX
  8
LAYER_1
 62
7
 10
31.525527
 20
2.956128
 42
0.039884
  0
VERTEX
  8
LAYER_1
 62
7
 10
31.485093
 20
2.961489
 42
0.011391
  0
VERTEX
  8
LAYER_1
 62
7
 10
31.258294
 20
2.964472
  0
SEQEND
  0
POLYLINE
  8
LAYER_1
 62
7
 70
1
 66
1
  0
VERTEX
  8
LAYER_1
 62
7
 10
31.806373
 20
1.507787
 42
0.199589
  0
VERTEX
  8
LAYER_1
 62
7
 10
31.787334
 20
1.553748
 42
0.199589
  0
VERTEX
  8
LAYER_1
 62
7
 10
31.741373
 20
1.572787
 42
0.199589
  0
VERTEX
  8
LAYER_1
 62
7
 10
31.695411
 20
1.553748
 42
0.199589
  0
VERTEX
  8
LAYER_1
 62
7
 10
31.676373
 20
1.507787
 42
0.199589
  0
VERTEX
  8
LAYER_1
 62
7
 10
31.695411
 20
1.461825
 42
0.199589
  0
VERTEX
  8
LAYER_1
 62
7
 10
31.741373
 20
1.442787
 42
0.199589
  0
VERTEX
  8
LAYER_1
 62
7
 10
31.787334
 20
1.461825
 42
0.199589
  0
VERTEX
  8
LAYER_1
 62
7
 10
31.806373
 20
1.507787
  0
SEQEND
  0
POLYLINE
  8
LAYER_1
 62
7
 70
1
 66
1
  0
VERTEX
  8
LAYER_1
 62
7
 10
31.806697
 20
4.414369
 42
0.199589
  0
VERTEX
  8
LAYER_1
 62
7
 10
31.787659
 20
4.460331
 42
0.199589
  0
VERTEX
  8
LAYER_1
 62
7
 10
31.741697
 20
4.479369
 42
0.199589
  0
VERTEX
  8
LAYER_1
 62
7
 10
31.695735
 20
4.460331
 42
0.199589
  0
VERTEX
  8
LAYER_1
 62
7
 10
31.676697
 20
4.414369
 42
0.199589
  0
VERTEX
  8
LAYER_1
 62
7
 10
31.695735
 20
4.368407
 42
0.199589
  0
VERTEX
  8
LAYER_1
 62
7
 10
31.741697
 20
4.349369
 42
0.199589
  0
VERTEX
  8
LAYER_1
 62
7
 10
31.787659
 20
4.368407
 42
0.199589
  0
VERTEX
  8
LAYER_1
 62
7
 10
31.806697
 20
4.414369
  0
SEQEND
  0
POLYLINE
  8
LAYER_1
 62
7
 70
1
 66
1
  0
VERTEX
  8
LAYER_1
 62
7
 10
30.838253
 20
4.414736
 42
0.199589
  0
VERTEX
  8
LAYER_1
 62
7
 10
30.819215
 20
4.460698
 42
0.199589
  0
VERTEX
  8
LAYER_1
 62
7
 10
30.773253
 20
4.479736
 42
0.199589
  0
VERTEX
  8
LAYER_1
 62
7
 10
30.727291
 20
4.460698
 42
0.199589
  0
VERTEX
  8
LAYER_1
 62
7
 10
30.708253
 20
4.414736
 42
0.199589
  0
VERTEX
  8
LAYER_1
 62
7
 10
30.727291
 20
4.368774
 42
0.199589
  0
VERTEX
  8
LAYER_1
 62
7
 10
30.773253
 20
4.349736
 42
0.199589
  0
VERTEX
  8
LAYER_1
 62
7
 10
30.819215
 20
4.368774
 42
0.199589
  0
VERTEX
  8
LAYER_1
 62
7
 10
30.838253
 20
4.414736
  0
SEQEND
  0
POLYLINE
  8
LAYER_1
 62
7
 70
1
 66
1
  0
VERTEX
  8
LAYER_1
 62
7
 10
30.838219
 20
1.507871
 42
0.199589
  0
VERTEX
  8
LAYER_1
 62
7
 10
30.819181
 20
1.553832
 42
0.199589
  0
VERTEX
  8
LAYER_1
 62
7
 10
30.773219
 20
1.572871
 42
0.199589
  0
VERTEX
  8
LAYER_1
 62
7
 10
30.727257
 20
1.553832
 42
0.199589
  0
VERTEX
  8
LAYER_1
 62
7
 10
30.708219
 20
1.507871
 42
0.199589
  0
VERTEX
  8
LAYER_1
 62
7
 10
30.727257
 20
1.461909
 42
0.199589
  0
VERTEX
  8
LAYER_1
 62
7
 10
30.773219
 20
1.442871
 42
0.199589
  0
VERTEX
  8
LAYER_1
 62
7
 10
30.819181
 20
1.461909
 42
0.199589
  0
VERTEX
  8
LAYER_1
 62
7
 10
30.838219
 20
1.507871
  0
SEQEND
  0
POLYLINE
  8
LAYER_1
 62
1
 70
1
 66
1
  0
VERTEX
  8
LAYER_1
 62
7
 10
30.544174
 20
2.467213
  0
VERTEX
  8
LAYER_1
 62
7
 10
30.583160
 20
2.467213
  0
VERTEX
  8
LAYER_1
 62
7
 10
30.583160
 20
2.376484
  0
VERTEX
  8
LAYER_1
 62
7
 10
30.669786
 20
2.376484
  0
VERTEX
  8
LAYER_1
 62
7
 10
30.669786
 20
2.345438
  0
VERTEX
  8
LAYER_1
 62
7
 10
30.544174
 20
2.345438
  0
VERTEX
  8
LAYER_1
 62
7
 10
30.544174
 20
2.467213
  0
SEQEND
  0
POLYLINE
  8
LAYER_1
 62
1
 70
1
 66
1
  0
VERTEX
  8
LAYER_1
 62
7
 10
30.790910
 20
2.467213
  0
VERTEX
  8
LAYER_1
 62
7
 10
30.828022
 20
2.467213
  0
VERTEX
  8
LAYER_1
 62
7
 10
30.828022
 20
2.411277
 42
0.035344
  0
VERTEX
  8
LAYER_1
 62
7
 10
30.829360
 20
2.386922
 42
0.304015
  0
VERTEX
  8
LAYER_1
 62
7
 10
30.838594
 20
2.377555
 42
0.047936
  0
VERTEX
  8
LAYER_1
 62
7
 10
30.850381
 20
2.375882
  0
VERTEX
  8
LAYER_1
 62
7
 10
30.870130
 20
2.375324
 42
0.031574
  0
VERTEX
  8
LAYER_1
 62
7
 10
30.896850
 20
2.376439
 42
0.061214
  0
VERTEX
  8
LAYER_1
 62
7
 10
30.903217
 20
2.378101
 42
0.104817
  0
VERTEX
  8
LAYER_1
 62
7
 10
30.907421
 20
2.380855
 42
0.120269
  0
VERTEX
  8
LAYER_1
 62
7
 10
30.910321
 20
2.386476
 42
0.042782
  0
VERTEX
  8
LAYER_1
 62
7
 10
30.911614
 20
2.397806
  0
VERTEX
  8
LAYER_1
 62
7
 10
30.912060
 20
2.411277
  0
VERTEX
  8
LAYER_1
 62
7
 10
30.912060
 20
2.467213
  0
VERTEX
  8
LAYER_1
 62
7
 10
30.949173
 20
2.467213
  0
VERTEX
  8
LAYER_1
 62
7
 10
30.949173
 20
2.411277
 42
-0.022646
  0
VERTEX
  8
LAYER_1
 62
7
 10
30.947299
 20
2.373094
 42
-0.242486
  0
VERTEX
  8
LAYER_1
 62
7
 10
30.932668
 20
2.350612
 42
-0.101447
  0
VERTEX
  8
LAYER_1
 62
7
 10
30.912774
 20
2.345081
  0
VERTEX
  8
LAYER_1
 62
7
 10
30.870577
 20
2.343654
  0
VERTEX
  8
LAYER_1
 62
7
 10
30.836587
 20
2.344457
 42
-0.039804
  0
VERTEX
  8
LAYER_1
 62
7
 10
30.815800
 20
2.347311
 42
-0.144668
  0
VERTEX
  8
LAYER_1
 62
7
 10
30.800322
 20
2.355519
 42
-0.153147
  0
VERTEX
  8
LAYER_1
 62
7
 10
30.792962
 20
2.370864
  0
VERTEX
  8
LAYER_1
 62
7
 10
30.791400
 20
2.383978
  0
VERTEX
  8
LAYER_1
 62
7
 10
30.790910
 20
2.411277
  0
VERTEX
  8
LAYER_1
 62
7
 10
30.790910
 20
2.467213
  0
SEQEND
  0
POLYLINE
  8
LAYER_1
 62
1
 70
1
 66
1
  0
VERTEX
  8
LAYER_1
 62
7
 10
31.070386
 20
2.467213
  0
VERTEX
  8
LAYER_1
 62
7
 10
31.217765
 20
2.467213
  0
VERTEX
  8
LAYER_1
 62
7
 10
31.217765
 20
2.436167
  0
VERTEX
  8
LAYER_1
 62
7
 10
31.163613
 20
2.436167
  0
VERTEX
  8
LAYER_1
 62
7
 10
31.163613
 20
2.345438
  0
VERTEX
  8
LAYER_1
 62
7
 10
31.124627
 20
2.345438
  0
VERTEX
  8
LAYER_1
 62
7
 10
31.124627
 20
2.436167
  0
VERTEX
  8
LAYER_1
 62
7
 10
31.070386
 20
2.436167
  0
VERTEX
  8
LAYER_1
 62
7
 10
31.070386
 20
2.467213
  0
SEQEND
  0
POLYLINE
  8
LAYER_1
 62
1
 70
1
 66
1
  0
VERTEX
  8
LAYER_1
 62
7
 10
31.339603
 20
2.467213
  0
VERTEX
  8
LAYER_1
 62
7
 10
31.378589
 20
2.467213
  0
VERTEX
  8
LAYER_1
 62
7
 10
31.378589
 20
2.345438
  0
VERTEX
  8
LAYER_1
 62
7
 10
31.339603
 20
2.345438
  0
VERTEX
  8
LAYER_1
 62
7
 10
31.339603
 20
2.467213
  0
SEQEND
  0
POLYLINE
  8
LAYER_1
 62
1
 70
1
 66
1
  0
VERTEX
  8
LAYER_1
 62
7
 10
31.590085
 20
2.468997
 42
-0.027684
  0
VERTEX
  8
LAYER_1
 62
7
 10
31.644326
 20
2.467035
 42
-0.132803
  0
VERTEX
  8
LAYER_1
 62
7
 10
31.661522
 20
2.460545
 42
-0.165850
  0
VERTEX
  8
LAYER_1
 62
7
 10
31.670466
 20
2.446783
 42
-0.059496
  0
VERTEX
  8
LAYER_1
 62
7
 10
31.673766
 20
2.406370
 42
-0.059438
  0
VERTEX
  8
LAYER_1
 62
7
 10
31.670466
 20
2.365868
 42
-0.165850
  0
VERTEX
  8
LAYER_1
 62
7
 10
31.661522
 20
2.352107
 42
-0.132803
  0
VERTEX
  8
LAYER_1
 62
7
 10
31.644326
 20
2.345616
 42
-0.027773
  0
VERTEX
  8
LAYER_1
 62
7
 10
31.590442
 20
2.343654
 42
-0.027595
  0
VERTEX
  8
LAYER_1
 62
7
 10
31.535844
 20
2.345616
 42
-0.132803
  0
VERTEX
  8
LAYER_1
 62
7
 10
31.518648
 20
2.352107
 42
-0.165850
  0
VERTEX
  8
LAYER_1
 62
7
 10
31.509704
 20
2.365868
 42
-0.058976
  0
VERTEX
  8
LAYER_1
 62
7
 10
31.506404
 20
2.407084
 42
-0.060208
  0
VERTEX
  8
LAYER_1
 62
7
 10
31.509704
 20
2.446783
 42
-0.165850
  0
VERTEX
  8
LAYER_1
 62
7
 10
31.518648
 20
2.460545
 42
-0.132803
  0
VERTEX
  8
LAYER_1
 62
7
 10
31.535844
 20
2.467035
 42
-0.027768
  0
VERTEX
  8
LAYER_1
 62
7
 10
31.590085
 20
2.468997
  0
SEQEND
  0
POLYLINE
  8
LAYER_1
 62
1
 70
1
 66
1
  0
VERTEX
  8
LAYER_1
 62
7
 10
31.590174
 20
2.437327
 42
0.039789
  0
VERTEX
  8
LAYER_1
 62
7
 10
31.554668
 20
2.435810
 42
0.267660
  0
VERTEX
  8
LAYER_1
 62
7
 10
31.545657
 20
2.427826
 42
0.057261
  0
VERTEX
  8
LAYER_1
 62
7
 10
31.544051
 20
2.418559
  0
VERTEX
  8
LAYER_1
 62
7
 10
31.543516
 20
2.403159
 42
0.051132
  0
VERTEX
  8
LAYER_1
 62
7
 10
31.544676
 20
2.387011
 42
0.172946
  0
VERTEX
  8
LAYER_1
 62
7
 10
31.549159
 20
2.379718
 42
0.138653
  0
VERTEX
  8
LAYER_1
 62
7
 10
31.558147
 20
2.376395
 42
0.026177
  0
VERTEX
  8
LAYER_1
 62
7
 10
31.590353
 20
2.375324
 42
0.021595
  0
VERTEX
  8
LAYER_1
 62
7
 10
31.620150
 20
2.376127
 42
0.134581
  0
VERTEX
  8
LAYER_1
 62
7
 10
31.631123
 20
2.379696
 42
0.174118
  0
VERTEX
  8
LAYER_1
 62
7
 10
31.635494
 20
2.387056
 42
0.052226
  0
VERTEX
  8
LAYER_1
 62
7
 10
31.636654
 20
2.402980
 42
0.032481
  0
VERTEX
  8
LAYER_1
 62
7
 10
31.635762
 20
2.422250
 42
0.121002
  0
VERTEX
  8
LAYER_1
 62
7
 10
31.632550
 20
2.431528
 42
0.203650
  0
VERTEX
  8
LAYER_1
 62
7
 10
31.622826
 20
2.436390
 42
0.024824
  0
VERTEX
  8
LAYER_1
 62
7
 10
31.590174
 20
2.437327
  0
SEQEND
  0
POLYLINE
  8
LAYER_1
 62
1
 70
1
 66
1
  0
VERTEX
  8
LAYER_1
 62
7
 10
31.801670
 20
2.467213
  0
VERTEX
  8
LAYER_1
 62
7
 10
31.866706
 20
2.467213
  0
VERTEX
  8
LAYER_1
 62
7
 10
31.930493
 20
2.376395
  0
VERTEX
  8
LAYER_1
 62
7
 10
31.934330
 20
2.376395
  0
VERTEX
  8
LAYER_1
 62
7
 10
31.933437
 20
2.467213
  0
VERTEX
  8
LAYER_1
 62
7
 10
31.971174
 20
2.467213
  0
VERTEX
  8
LAYER_1
 62
7
 10
31.971174
 20
2.345438
  0
VERTEX
  8
LAYER_1
 62
7
 10
31.906674
 20
2.345438
  0
VERTEX
  8
LAYER_1
 62
7
 10
31.842619
 20
2.436256
  0
VERTEX
  8
LAYER_1
 62
7
 10
31.838605
 20
2.436256
  0
VERTEX
  8
LAYER_1
 62
7
 10
31.839407
 20
2.345438
  0
VERTEX
  8
LAYER_1
 62
7
 10
31.801670
 20
2.345438
  0
VERTEX
  8
LAYER_1
 62
7
 10
31.801670
 20
2.467213
  0
SEQEND
  0
ENDSEC
  0
EOF
