  0
SECTION
  2
HEADER
  9
$EXTMIN
 10
0.000000
 20
0.000000
  9
$EXTMAX
 10
36.000000
 20
24.000000
  9
$LTSCALE
 40
100.000000
  9
$PDMODE
 70
35
  9
$PDSIZE
 40
80.000000
  0
ENDSEC
  0
SECTION
  2
TABLES
  0
TABLE
  2
LAYER
 70
1
  0
LAYER
  2
LAYER_1
 70
0
 62
1
  6
CONTINUOUS
  0
ENDTAB
  0
ENDSEC
  0
SECTION
  2
BLOCKS
  0
ENDSEC
  0
SECTION
  2
ENTITIES
  0
POLYLINE
  8
LAYER_1
 62
0
 70
1
 66
1
  0
VERTEX
  8
LAYER_1
 62
7
 10
30.341651
 20
14.410395
  0
VERTEX
  8
LAYER_1
 62
7
 10
21.341651
 20
14.410395
  0
VERTEX
  8
LAYER_1
 62
7
 10
21.341651
 20
6.410395
  0
VERTEX
  8
LAYER_1
 62
7
 10
30.341651
 20
6.410395
  0
VERTEX
  8
LAYER_1
 62
7
 10
30.341651
 20
14.410395
  0
SEQEND
  0
POLYLINE
  8
LAYER_1
 62
0
 70
1
 66
1
  0
VERTEX
  8
LAYER_1
 62
7
 10
23.552360
 20
9.046350
 42
-0.239047
  0
VERTEX
  8
LAYER_1
 62
7
 10
23.610939
 20
9.152415
 42
-0.160297
  0
VERTEX
  8
LAYER_1
 62
7
 10
23.752360
 20
9.196349
  0
VERTEX
  8
LAYER_1
 62
7
 10
24.165360
 20
9.196349
 42
-0.160297
  0
VERTEX
  8
LAYER_1
 62
7
 10
24.306782
 20
9.152415
 42
-0.239047
  0
VERTEX
  8
LAYER_1
 62
7
 10
24.365360
 20
9.046350
  0
VERTEX
  8
LAYER_1
 62
7
 10
24.365360
 20
7.636785
 42
0.199588
  0
VERTEX
  8
LAYER_1
 62
7
 10
24.431669
 20
7.476704
 42
0.199588
  0
VERTEX
  8
LAYER_1
 62
7
 10
24.591750
 20
7.410395
  0
VERTEX
  8
LAYER_1
 62
7
 10
25.358860
 20
7.410395
 42
0.199589
  0
VERTEX
  8
LAYER_1
 62
7
 10
25.429571
 20
7.439685
 42
0.199589
  0
VERTEX
  8
LAYER_1
 62
7
 10
25.458860
 20
7.510395
  0
VERTEX
  8
LAYER_1
 62
7
 10
25.458860
 20
13.310395
 42
0.199589
  0
VERTEX
  8
LAYER_1
 62
7
 10
25.429571
 20
13.381106
 42
0.199589
  0
VERTEX
  8
LAYER_1
 62
7
 10
25.358860
 20
13.410395
  0
VERTEX
  8
LAYER_1
 62
7
 10
22.558860
 20
13.410395
 42
0.199589
  0
VERTEX
  8
LAYER_1
 62
7
 10
22.488150
 20
13.381106
 42
0.199589
  0
VERTEX
  8
LAYER_1
 62
7
 10
22.458860
 20
13.310395
  0
VERTEX
  8
LAYER_1
 62
7
 10
22.458860
 20
7.510395
 42
0.168014
  0
VERTEX
  8
LAYER_1
 62
7
 10
22.474485
 20
7.471471
 42
0.068280
  0
VERTEX
  8
LAYER_1
 62
7
 10
22.508860
 20
7.439685
 42
0.045771
  0
VERTEX
  8
LAYER_1
 62
7
 10
22.558860
 20
7.410395
  0
VERTEX
  8
LAYER_1
 62
7
 10
23.328126
 20
7.410395
 42
0.199588
  0
VERTEX
  8
LAYER_1
 62
7
 10
23.486683
 20
7.476073
 42
0.199588
  0
VERTEX
  8
LAYER_1
 62
7
 10
23.552360
 20
7.634630
  0
VERTEX
  8
LAYER_1
 62
7
 10
23.552360
 20
7.653334
  0
VERTEX
  8
LAYER_1
 62
7
 10
23.552360
 20
9.046350
  0
SEQEND
  0
POLYLINE
  8
LAYER_1
 62
1
 70
1
 66
1
  0
VERTEX
  8
LAYER_1
 62
7
 10
24.963860
 20
12.146326
  0
VERTEX
  8
LAYER_1
 62
7
 10
22.953860
 20
12.146326
 42
0.199589
  0
VERTEX
  8
LAYER_1
 62
7
 10
22.883150
 20
12.117036
 42
0.199589
  0
VERTEX
  8
LAYER_1
 62
7
 10
22.853860
 20
12.046326
  0
VERTEX
  8
LAYER_1
 62
7
 10
22.853860
 20
10.051326
 42
0.199589
  0
VERTEX
  8
LAYER_1
 62
7
 10
22.883150
 20
9.980615
 42
0.199589
  0
VERTEX
  8
LAYER_1
 62
7
 10
22.953860
 20
9.951326
  0
VERTEX
  8
LAYER_1
 62
7
 10
24.963860
 20
9.951326
 42
0.199589
  0
VERTEX
  8
LAYER_1
 62
7
 10
25.034571
 20
9.980615
 42
0.199589
  0
VERTEX
  8
LAYER_1
 62
7
 10
25.063860
 20
10.051326
  0
VERTEX
  8
LAYER_1
 62
7
 10
25.063860
 20
12.046326
 42
0.199589
  0
VERTEX
  8
LAYER_1
 62
7
 10
25.034571
 20
12.117036
 42
0.199589
  0
VERTEX
  8
LAYER_1
 62
7
 10
24.963860
 20
12.146326
  0
SEQEND
  0
POLYLINE
  8
LAYER_1
 62
0
 70
1
 66
1
  0
VERTEX
  8
LAYER_1
 62
7
 10
23.058860
 20
12.040326
  0
VERTEX
  8
LAYER_1
 62
7
 10
24.849387
 20
12.040326
  0
VERTEX
  8
LAYER_1
 62
7
 10
24.849387
 20
11.899227
  0
VERTEX
  8
LAYER_1
 62
7
 10
23.544387
 20
11.899227
  0
VERTEX
  8
LAYER_1
 62
7
 10
23.544387
 20
11.812633
  0
VERTEX
  8
LAYER_1
 62
7
 10
24.783071
 20
11.812633
  0
VERTEX
  8
LAYER_1
 62
7
 10
24.783071
 20
11.680765
  0
VERTEX
  8
LAYER_1
 62
7
 10
23.544387
 20
11.680765
  0
VERTEX
  8
LAYER_1
 62
7
 10
23.544387
 20
11.584501
  0
VERTEX
  8
LAYER_1
 62
7
 10
24.858860
 20
11.584501
  0
VERTEX
  8
LAYER_1
 62
7
 10
24.858860
 20
11.440326
  0
VERTEX
  8
LAYER_1
 62
7
 10
23.058860
 20
11.440326
  0
VERTEX
  8
LAYER_1
 62
7
 10
23.058860
 20
12.040326
  0
SEQEND
  0
POLYLINE
  8
LAYER_1
 62
0
 70
1
 66
1
  0
VERTEX
  8
LAYER_1
 62
7
 10
23.058860
 20
11.353326
  0
VERTEX
  8
LAYER_1
 62
7
 10
23.474315
 20
11.353326
  0
VERTEX
  8
LAYER_1
 62
7
 10
23.927042
 20
10.904095
  0
VERTEX
  8
LAYER_1
 62
7
 10
23.997951
 20
10.904095
  0
VERTEX
  8
LAYER_1
 62
7
 10
24.446133
 20
11.353326
  0
VERTEX
  8
LAYER_1
 62
7
 10
24.858860
 20
11.353326
  0
VERTEX
  8
LAYER_1
 62
7
 10
24.253406
 20
10.753326
  0
VERTEX
  8
LAYER_1
 62
7
 10
23.672497
 20
10.753326
  0
VERTEX
  8
LAYER_1
 62
7
 10
23.058860
 20
11.353326
  0
SEQEND
  0
POLYLINE
  8
LAYER_1
 62
0
 70
1
 66
1
  0
VERTEX
  8
LAYER_1
 62
7
 10
23.958860
 20
10.675326
 42
-0.012709
  0
VERTEX
  8
LAYER_1
 62
7
 10
24.542229
 20
10.665649
 42
-0.068000
  0
VERTEX
  8
LAYER_1
 62
7
 10
24.727171
 20
10.633649
 42
-0.172905
  0
VERTEX
  8
LAYER_1
 62
7
 10
24.823359
 20
10.565801
 42
-0.089880
  0
VERTEX
  8
LAYER_1
 62
7
 10
24.849985
 20
10.486517
 42
-0.043314
  0
VERTEX
  8
LAYER_1
 62
7
 10
24.858860
 20
10.366546
 42
-0.043215
  0
VERTEX
  8
LAYER_1
 62
7
 10
24.849985
 20
10.246244
 42
-0.089947
  0
VERTEX
  8
LAYER_1
 62
7
 10
24.823359
 20
10.166850
 42
-0.172905
  0
VERTEX
  8
LAYER_1
 62
7
 10
24.727171
 20
10.099002
 42
-0.068000
  0
VERTEX
  8
LAYER_1
 62
7
 10
24.542229
 20
10.067002
 42
-0.012750
  0
VERTEX
  8
LAYER_1
 62
7
 10
23.962698
 20
10.057326
 42
-0.012668
  0
VERTEX
  8
LAYER_1
 62
7
 10
23.375492
 20
10.067002
 42
-0.068000
  0
VERTEX
  8
LAYER_1
 62
7
 10
23.190550
 20
10.099002
 42
-0.172905
  0
VERTEX
  8
LAYER_1
 62
7
 10
23.094362
 20
10.166850
 42
-0.090463
  0
VERTEX
  8
LAYER_1
 62
7
 10
23.067736
 20
10.247124
 42
-0.042437
  0
VERTEX
  8
LAYER_1
 62
7
 10
23.058860
 20
10.370064
 42
-0.044106
  0
VERTEX
  8
LAYER_1
 62
7
 10
23.067736
 20
10.487616
 42
-0.090088
  0
VERTEX
  8
LAYER_1
 62
7
 10
23.094362
 20
10.565801
 42
-0.172905
  0
VERTEX
  8
LAYER_1
 62
7
 10
23.190550
 20
10.633649
 42
-0.068000
  0
VERTEX
  8
LAYER_1
 62
7
 10
23.375492
 20
10.665649
 42
-0.012748
  0
VERTEX
  8
LAYER_1
 62
7
 10
23.958860
 20
10.675326
  0
SEQEND
  0
POLYLINE
  8
LAYER_1
 62
0
 70
1
 66
1
  0
VERTEX
  8
LAYER_1
 62
7
 10
23.959820
 20
10.519176
 42
0.018285
  0
VERTEX
  8
LAYER_1
 62
7
 10
23.577944
 20
10.511699
 42
0.065672
  0
VERTEX
  8
LAYER_1
 62
7
 10
23.516776
 20
10.497458
 42
0.135560
  0
VERTEX
  8
LAYER_1
 62
7
 10
23.481035
 20
10.472331
 42
0.111542
  0
VERTEX
  8
LAYER_1
 62
7
 10
23.463765
 20
10.426641
 42
0.045619
  0
VERTEX
  8
LAYER_1
 62
7
 10
23.458008
 20
10.350711
 42
0.038229
  0
VERTEX
  8
LAYER_1
 62
7
 10
23.461126
 20
10.303316
 42
0.076859
  0
VERTEX
  8
LAYER_1
 62
7
 10
23.470481
 20
10.271096
 42
0.187934
  0
VERTEX
  8
LAYER_1
 62
7
 10
23.518695
 20
10.235138
 42
0.070760
  0
VERTEX
  8
LAYER_1
 62
7
 10
23.615364
 20
10.218753
 42
0.012015
  0
VERTEX
  8
LAYER_1
 62
7
 10
23.961739
 20
10.213475
 42
0.009908
  0
VERTEX
  8
LAYER_1
 62
7
 10
24.282208
 20
10.217434
 42
0.067427
  0
VERTEX
  8
LAYER_1
 62
7
 10
24.400225
 20
10.235028
 42
0.192612
  0
VERTEX
  8
LAYER_1
 62
7
 10
24.447240
 20
10.271316
 42
0.078983
  0
VERTEX
  8
LAYER_1
 62
7
 10
24.456595
 20
10.302931
 42
0.038733
  0
VERTEX
  8
LAYER_1
 62
7
 10
24.459713
 20
10.349831
 42
0.070140
  0
VERTEX
  8
LAYER_1
 62
7
 10
24.450118
 20
10.444840
 42
0.185573
  0
VERTEX
  8
LAYER_1
 62
7
 10
24.415577
 20
10.490585
 42
0.079454
  0
VERTEX
  8
LAYER_1
 62
7
 10
24.373599
 20
10.506255
 42
0.039884
  0
VERTEX
  8
LAYER_1
 62
7
 10
24.310993
 20
10.514558
 42
0.011391
  0
VERTEX
  8
LAYER_1
 62
7
 10
23.959820
 20
10.519176
  0
SEQEND
  0
POLYLINE
  8
LAYER_1
 62
1
 70
1
 66
1
  0
VERTEX
  8
LAYER_1
 62
7
 10
22.854326
 20
9.781436
  0
VERTEX
  8
LAYER_1
 62
7
 10
22.914703
 20
9.781436
  0
VERTEX
  8
LAYER_1
 62
7
 10
22.914703
 20
9.640924
  0
VERTEX
  8
LAYER_1
 62
7
 10
23.048860
 20
9.640924
  0
VERTEX
  8
LAYER_1
 62
7
 10
23.048860
 20
9.592843
  0
VERTEX
  8
LAYER_1
 62
7
 10
22.854326
 20
9.592843
  0
VERTEX
  8
LAYER_1
 62
7
 10
22.854326
 20
9.781436
  0
SEQEND
  0
POLYLINE
  8
LAYER_1
 62
1
 70
1
 66
1
  0
VERTEX
  8
LAYER_1
 62
7
 10
23.236445
 20
9.781436
  0
VERTEX
  8
LAYER_1
 62
7
 10
23.293922
 20
9.781436
  0
VERTEX
  8
LAYER_1
 62
7
 10
23.293922
 20
9.694808
 42
0.035344
  0
VERTEX
  8
LAYER_1
 62
7
 10
23.295994
 20
9.657089
 42
0.304015
  0
VERTEX
  8
LAYER_1
 62
7
 10
23.310294
 20
9.642582
 42
0.047936
  0
VERTEX
  8
LAYER_1
 62
7
 10
23.328549
 20
9.639991
  0
VERTEX
  8
LAYER_1
 62
7
 10
23.359135
 20
9.639128
 42
0.031574
  0
VERTEX
  8
LAYER_1
 62
7
 10
23.400515
 20
9.640855
 42
0.061214
  0
VERTEX
  8
LAYER_1
 62
7
 10
23.410376
 20
9.643428
 42
0.104817
  0
VERTEX
  8
LAYER_1
 62
7
 10
23.416887
 20
9.647694
 42
0.120269
  0
VERTEX
  8
LAYER_1
 62
7
 10
23.421378
 20
9.656398
 42
0.042782
  0
VERTEX
  8
LAYER_1
 62
7
 10
23.423381
 20
9.673945
  0
VERTEX
  8
LAYER_1
 62
7
 10
23.424072
 20
9.694808
  0
VERTEX
  8
LAYER_1
 62
7
 10
23.424072
 20
9.781436
  0
VERTEX
  8
LAYER_1
 62
7
 10
23.481548
 20
9.781436
  0
VERTEX
  8
LAYER_1
 62
7
 10
23.481548
 20
9.694808
 42
-0.022646
  0
VERTEX
  8
LAYER_1
 62
7
 10
23.478647
 20
9.635673
 42
-0.242486
  0
VERTEX
  8
LAYER_1
 62
7
 10
23.455988
 20
9.600856
 42
-0.101447
  0
VERTEX
  8
LAYER_1
 62
7
 10
23.425177
 20
9.592290
 42
-0.024428
  0
VERTEX
  8
LAYER_1
 62
7
 10
23.359826
 20
9.590079
  0
VERTEX
  8
LAYER_1
 62
7
 10
23.307185
 20
9.591323
 42
-0.039804
  0
VERTEX
  8
LAYER_1
 62
7
 10
23.274993
 20
9.595744
 42
-0.144668
  0
VERTEX
  8
LAYER_1
 62
7
 10
23.251022
 20
9.608455
 42
-0.153147
  0
VERTEX
  8
LAYER_1
 62
7
 10
23.239623
 20
9.632219
  0
VERTEX
  8
LAYER_1
 62
7
 10
23.237205
 20
9.652529
  0
VERTEX
  8
LAYER_1
 62
7
 10
23.236445
 20
9.694808
  0
VERTEX
  8
LAYER_1
 62
7
 10
23.236445
 20
9.781436
  0
SEQEND
  0
POLYLINE
  8
LAYER_1
 62
1
 70
1
 66
1
  0
VERTEX
  8
LAYER_1
 62
7
 10
23.669271
 20
9.781436
  0
VERTEX
  8
LAYER_1
 62
7
 10
23.897518
 20
9.781436
  0
VERTEX
  8
LAYER_1
 62
7
 10
23.897518
 20
9.733355
  0
VERTEX
  8
LAYER_1
 62
7
 10
23.813653
 20
9.733355
  0
VERTEX
  8
LAYER_1
 62
7
 10
23.813653
 20
9.592843
  0
VERTEX
  8
LAYER_1
 62
7
 10
23.753275
 20
9.592843
  0
VERTEX
  8
LAYER_1
 62
7
 10
23.753275
 20
9.733355
  0
VERTEX
  8
LAYER_1
 62
7
 10
23.669271
 20
9.733355
  0
VERTEX
  8
LAYER_1
 62
7
 10
23.669271
 20
9.781436
  0
SEQEND
  0
POLYLINE
  8
LAYER_1
 62
1
 70
1
 66
1
  0
VERTEX
  8
LAYER_1
 62
7
 10
24.086208
 20
9.781436
  0
VERTEX
  8
LAYER_1
 62
7
 10
24.146586
 20
9.781436
  0
VERTEX
  8
LAYER_1
 62
7
 10
24.146586
 20
9.592843
  0
VERTEX
  8
LAYER_1
 62
7
 10
24.086208
 20
9.592843
  0
VERTEX
  8
LAYER_1
 62
7
 10
24.086208
 20
9.781436
  0
SEQEND
  0
POLYLINE
  8
LAYER_1
 62
1
 70
1
 66
1
  0
VERTEX
  8
LAYER_1
 62
7
 10
24.474131
 20
9.784200
 42
-0.027684
  0
VERTEX
  8
LAYER_1
 62
7
 10
24.558135
 20
9.781160
 42
-0.132803
  0
VERTEX
  8
LAYER_1
 62
7
 10
24.584766
 20
9.771109
 42
-0.165850
  0
VERTEX
  8
LAYER_1
 62
7
 10
24.598617
 20
9.749797
 42
-0.059496
  0
VERTEX
  8
LAYER_1
 62
7
 10
24.603729
 20
9.687209
 42
-0.059438
  0
VERTEX
  8
LAYER_1
 62
7
 10
24.598617
 20
9.624482
 42
-0.165850
  0
VERTEX
  8
LAYER_1
 62
7
 10
24.584766
 20
9.603170
 42
-0.132803
  0
VERTEX
  8
LAYER_1
 62
7
 10
24.558135
 20
9.593119
 42
-0.027773
  0
VERTEX
  8
LAYER_1
 62
7
 10
24.474684
 20
9.590079
 42
-0.027595
  0
VERTEX
  8
LAYER_1
 62
7
 10
24.390127
 20
9.593119
 42
-0.132803
  0
VERTEX
  8
LAYER_1
 62
7
 10
24.363496
 20
9.603170
 42
-0.165850
  0
VERTEX
  8
LAYER_1
 62
7
 10
24.349645
 20
9.624482
 42
-0.058976
  0
VERTEX
  8
LAYER_1
 62
7
 10
24.344533
 20
9.688314
 42
-0.060208
  0
VERTEX
  8
LAYER_1
 62
7
 10
24.349645
 20
9.749797
 42
-0.165850
  0
VERTEX
  8
LAYER_1
 62
7
 10
24.363496
 20
9.771109
 42
-0.132803
  0
VERTEX
  8
LAYER_1
 62
7
 10
24.390127
 20
9.781160
 42
-0.027768
  0
VERTEX
  8
LAYER_1
 62
7
 10
24.474131
 20
9.784200
  0
SEQEND
  0
POLYLINE
  8
LAYER_1
 62
1
 70
1
 66
1
  0
VERTEX
  8
LAYER_1
 62
7
 10
24.474269
 20
9.735151
 42
0.039789
  0
VERTEX
  8
LAYER_1
 62
7
 10
24.419280
 20
9.732803
 42
0.267660
  0
VERTEX
  8
LAYER_1
 62
7
 10
24.405325
 20
9.720437
 42
0.057261
  0
VERTEX
  8
LAYER_1
 62
7
 10
24.402838
 20
9.706085
  0
VERTEX
  8
LAYER_1
 62
7
 10
24.402009
 20
9.682235
 42
0.051132
  0
VERTEX
  8
LAYER_1
 62
7
 10
24.403806
 20
9.657227
 42
0.172946
  0
VERTEX
  8
LAYER_1
 62
7
 10
24.410748
 20
9.645932
 42
0.138653
  0
VERTEX
  8
LAYER_1
 62
7
 10
24.424668
 20
9.640786
 42
0.026177
  0
VERTEX
  8
LAYER_1
 62
7
 10
24.474546
 20
9.639128
 42
0.021595
  0
VERTEX
  8
LAYER_1
 62
7
 10
24.520692
 20
9.640371
 42
0.134581
  0
VERTEX
  8
LAYER_1
 62
7
 10
24.537686
 20
9.645898
 42
0.174118
  0
VERTEX
  8
LAYER_1
 62
7
 10
24.544456
 20
9.657296
 42
0.052226
  0
VERTEX
  8
LAYER_1
 62
7
 10
24.546253
 20
9.681958
 42
0.032481
  0
VERTEX
  8
LAYER_1
 62
7
 10
24.544871
 20
9.711802
 42
0.121002
  0
VERTEX
  8
LAYER_1
 62
7
 10
24.539897
 20
9.726171
 42
0.203650
  0
VERTEX
  8
LAYER_1
 62
7
 10
24.524837
 20
9.733701
 42
0.024824
  0
VERTEX
  8
LAYER_1
 62
7
 10
24.474269
 20
9.735151
  0
SEQEND
  0
POLYLINE
  8
LAYER_1
 62
1
 70
1
 66
1
  0
VERTEX
  8
LAYER_1
 62
7
 10
24.801814
 20
9.781436
  0
VERTEX
  8
LAYER_1
 62
7
 10
24.902536
 20
9.781436
  0
VERTEX
  8
LAYER_1
 62
7
 10
25.001323
 20
9.640786
  0
VERTEX
  8
LAYER_1
 62
7
 10
25.007264
 20
9.640786
  0
VERTEX
  8
LAYER_1
 62
7
 10
25.005882
 20
9.781436
  0
VERTEX
  8
LAYER_1
 62
7
 10
25.064326
 20
9.781436
  0
VERTEX
  8
LAYER_1
 62
7
 10
25.064326
 20
9.592843
  0
VERTEX
  8
LAYER_1
 62
7
 10
24.964433
 20
9.592843
  0
VERTEX
  8
LAYER_1
 62
7
 10
24.865231
 20
9.733494
  0
VERTEX
  8
LAYER_1
 62
7
 10
24.859014
 20
9.733494
  0
VERTEX
  8
LAYER_1
 62
7
 10
24.860258
 20
9.592843
  0
VERTEX
  8
LAYER_1
 62
7
 10
24.801814
 20
9.592843
  0
VERTEX
  8
LAYER_1
 62
7
 10
24.801814
 20
9.781436
  0
SEQEND
  0
POLYLINE
  8
LAYER_1
 62
7
 70
1
 66
1
  0
VERTEX
  8
LAYER_1
 62
7
 10
23.273043
 20
12.660306
 42
0.199589
  0
VERTEX
  8
LAYER_1
 62
7
 10
23.254005
 20
12.706268
 42
0.199589
  0
VERTEX
  8
LAYER_1
 62
7
 10
23.208043
 20
12.725306
 42
0.199589
  0
VERTEX
  8
LAYER_1
 62
7
 10
23.162081
 20
12.706268
 42
0.199589
  0
VERTEX
  8
LAYER_1
 62
7
 10
23.143043
 20
12.660306
 42
0.199589
  0
VERTEX
  8
LAYER_1
 62
7
 10
23.162081
 20
12.614344
 42
0.199589
  0
VERTEX
  8
LAYER_1
 62
7
 10
23.208043
 20
12.595306
 42
0.199589
  0
VERTEX
  8
LAYER_1
 62
7
 10
23.254005
 20
12.614344
 42
0.199589
  0
VERTEX
  8
LAYER_1
 62
7
 10
23.273043
 20
12.660306
  0
SEQEND
  0
POLYLINE
  8
LAYER_1
 62
7
 70
1
 66
1
  0
VERTEX
  8
LAYER_1
 62
7
 10
24.773043
 20
12.660306
 42
0.199589
  0
VERTEX
  8
LAYER_1
 62
7
 10
24.754005
 20
12.706268
 42
0.199589
  0
VERTEX
  8
LAYER_1
 62
7
 10
24.708043
 20
12.725306
 42
0.199589
  0
VERTEX
  8
LAYER_1
 62
7
 10
24.662081
 20
12.706268
 42
0.199589
  0
VERTEX
  8
LAYER_1
 62
7
 10
24.643043
 20
12.660306
 42
0.199589
  0
VERTEX
  8
LAYER_1
 62
7
 10
24.662081
 20
12.614344
 42
0.199589
  0
VERTEX
  8
LAYER_1
 62
7
 10
24.708043
 20
12.595306
 42
0.199589
  0
VERTEX
  8
LAYER_1
 62
7
 10
24.754005
 20
12.614344
 42
0.199589
  0
VERTEX
  8
LAYER_1
 62
7
 10
24.773043
 20
12.660306
  0
SEQEND
  0
POLYLINE
  8
LAYER_1
 62
7
 70
1
 66
1
  0
VERTEX
  8
LAYER_1
 62
7
 10
23.273043
 20
8.160306
 42
0.199589
  0
VERTEX
  8
LAYER_1
 62
7
 10
23.254005
 20
8.206268
 42
0.199589
  0
VERTEX
  8
LAYER_1
 62
7
 10
23.208043
 20
8.225306
 42
0.199589
  0
VERTEX
  8
LAYER_1
 62
7
 10
23.162081
 20
8.206268
 42
0.199589
  0
VERTEX
  8
LAYER_1
 62
7
 10
23.143043
 20
8.160306
 42
0.199589
  0
VERTEX
  8
LAYER_1
 62
7
 10
23.162081
 20
8.114344
 42
0.199589
  0
VERTEX
  8
LAYER_1
 62
7
 10
23.208043
 20
8.095306
 42
0.199589
  0
VERTEX
  8
LAYER_1
 62
7
 10
23.254005
 20
8.114344
 42
0.199589
  0
VERTEX
  8
LAYER_1
 62
7
 10
23.273043
 20
8.160306
  0
SEQEND
  0
POLYLINE
  8
LAYER_1
 62
7
 70
1
 66
1
  0
VERTEX
  8
LAYER_1
 62
7
 10
24.773043
 20
8.160306
 42
0.199589
  0
VERTEX
  8
LAYER_1
 62
7
 10
24.754005
 20
8.206268
 42
0.199589
  0
VERTEX
  8
LAYER_1
 62
7
 10
24.708043
 20
8.225306
 42
0.199589
  0
VERTEX
  8
LAYER_1
 62
7
 10
24.662081
 20
8.206268
 42
0.199589
  0
VERTEX
  8
LAYER_1
 62
7
 10
24.643043
 20
8.160306
 42
0.199589
  0
VERTEX
  8
LAYER_1
 62
7
 10
24.662081
 20
8.114344
 42
0.199589
  0
VERTEX
  8
LAYER_1
 62
7
 10
24.708043
 20
8.095306
 42
0.199589
  0
VERTEX
  8
LAYER_1
 62
7
 10
24.754005
 20
8.114344
 42
0.199589
  0
VERTEX
  8
LAYER_1
 62
7
 10
24.773043
 20
8.160306
  0
SEQEND
  0
POLYLINE
  8
LAYER_1
 62
0
 70
1
 66
1
  0
VERTEX
  8
LAYER_1
 62
7
 10
27.317942
 20
9.046350
 42
-0.239047
  0
VERTEX
  8
LAYER_1
 62
7
 10
27.376521
 20
9.152415
 42
-0.160297
  0
VERTEX
  8
LAYER_1
 62
7
 10
27.517942
 20
9.196349
  0
VERTEX
  8
LAYER_1
 62
7
 10
27.930942
 20
9.196349
 42
-0.160297
  0
VERTEX
  8
LAYER_1
 62
7
 10
28.072363
 20
9.152415
 42
-0.239047
  0
VERTEX
  8
LAYER_1
 62
7
 10
28.130942
 20
9.046350
  0
VERTEX
  8
LAYER_1
 62
7
 10
28.130942
 20
7.636785
 42
0.199588
  0
VERTEX
  8
LAYER_1
 62
7
 10
28.197251
 20
7.476704
 42
0.199588
  0
VERTEX
  8
LAYER_1
 62
7
 10
28.357332
 20
7.410395
  0
VERTEX
  8
LAYER_1
 62
7
 10
29.124442
 20
7.410395
 42
0.199589
  0
VERTEX
  8
LAYER_1
 62
7
 10
29.195153
 20
7.439685
 42
0.199589
  0
VERTEX
  8
LAYER_1
 62
7
 10
29.224442
 20
7.510395
  0
VERTEX
  8
LAYER_1
 62
7
 10
29.224442
 20
13.310395
 42
0.199589
  0
VERTEX
  8
LAYER_1
 62
7
 10
29.195153
 20
13.381106
 42
0.199589
  0
VERTEX
  8
LAYER_1
 62
7
 10
29.124442
 20
13.410395
  0
VERTEX
  8
LAYER_1
 62
7
 10
26.324442
 20
13.410395
 42
0.199589
  0
VERTEX
  8
LAYER_1
 62
7
 10
26.253731
 20
13.381106
 42
0.199589
  0
VERTEX
  8
LAYER_1
 62
7
 10
26.224442
 20
13.310395
  0
VERTEX
  8
LAYER_1
 62
7
 10
26.224442
 20
7.510395
 42
0.168014
  0
VERTEX
  8
LAYER_1
 62
7
 10
26.240067
 20
7.471471
 42
0.068280
  0
VERTEX
  8
LAYER_1
 62
7
 10
26.274442
 20
7.439685
 42
0.045771
  0
VERTEX
  8
LAYER_1
 62
7
 10
26.324442
 20
7.410395
  0
VERTEX
  8
LAYER_1
 62
7
 10
27.093707
 20
7.410395
 42
0.199588
  0
VERTEX
  8
LAYER_1
 62
7
 10
27.252264
 20
7.476073
 42
0.199588
  0
VERTEX
  8
LAYER_1
 62
7
 10
27.317942
 20
7.634630
  0
VERTEX
  8
LAYER_1
 62
7
 10
27.317942
 20
7.653334
  0
VERTEX
  8
LAYER_1
 62
7
 10
27.317942
 20
9.046350
  0
SEQEND
  0
POLYLINE
  8
LAYER_1
 62
1
 70
1
 66
1
  0
VERTEX
  8
LAYER_1
 62
7
 10
28.729442
 20
12.146326
  0
VERTEX
  8
LAYER_1
 62
7
 10
26.719442
 20
12.146326
 42
0.199589
  0
VERTEX
  8
LAYER_1
 62
7
 10
26.648731
 20
12.117036
 42
0.199589
  0
VERTEX
  8
LAYER_1
 62
7
 10
26.619442
 20
12.046326
  0
VERTEX
  8
LAYER_1
 62
7
 10
26.619442
 20
10.051326
 42
0.199589
  0
VERTEX
  8
LAYER_1
 62
7
 10
26.648731
 20
9.980615
 42
0.199589
  0
VERTEX
  8
LAYER_1
 62
7
 10
26.719442
 20
9.951326
  0
VERTEX
  8
LAYER_1
 62
7
 10
28.729442
 20
9.951326
 42
0.199589
  0
VERTEX
  8
LAYER_1
 62
7
 10
28.800153
 20
9.980615
 42
0.199589
  0
VERTEX
  8
LAYER_1
 62
7
 10
28.829442
 20
10.051326
  0
VERTEX
  8
LAYER_1
 62
7
 10
28.829442
 20
12.046326
 42
0.199589
  0
VERTEX
  8
LAYER_1
 62
7
 10
28.800153
 20
12.117036
 42
0.199589
  0
VERTEX
  8
LAYER_1
 62
7
 10
28.729442
 20
12.146326
  0
SEQEND
  0
POLYLINE
  8
LAYER_1
 62
0
 70
1
 66
1
  0
VERTEX
  8
LAYER_1
 62
7
 10
26.824442
 20
12.040326
  0
VERTEX
  8
LAYER_1
 62
7
 10
28.614968
 20
12.040326
  0
VERTEX
  8
LAYER_1
 62
7
 10
28.614968
 20
11.899227
  0
VERTEX
  8
LAYER_1
 62
7
 10
27.309968
 20
11.899227
  0
VERTEX
  8
LAYER_1
 62
7
 10
27.309968
 20
11.812633
  0
VERTEX
  8
LAYER_1
 62
7
 10
28.548652
 20
11.812633
  0
VERTEX
  8
LAYER_1
 62
7
 10
28.548652
 20
11.680765
  0
VERTEX
  8
LAYER_1
 62
7
 10
27.309968
 20
11.680765
  0
VERTEX
  8
LAYER_1
 62
7
 10
27.309968
 20
11.584501
  0
VERTEX
  8
LAYER_1
 62
7
 10
28.624442
 20
11.584501
  0
VERTEX
  8
LAYER_1
 62
7
 10
28.624442
 20
11.440326
  0
VERTEX
  8
LAYER_1
 62
7
 10
26.824442
 20
11.440326
  0
VERTEX
  8
LAYER_1
 62
7
 10
26.824442
 20
12.040326
  0
SEQEND
  0
POLYLINE
  8
LAYER_1
 62
0
 70
1
 66
1
  0
VERTEX
  8
LAYER_1
 62
7
 10
26.824442
 20
11.353326
  0
VERTEX
  8
LAYER_1
 62
7
 10
27.239896
 20
11.353326
  0
VERTEX
  8
LAYER_1
 62
7
 10
27.692624
 20
10.904095
  0
VERTEX
  8
LAYER_1
 62
7
 10
27.763533
 20
10.904095
  0
VERTEX
  8
LAYER_1
 62
7
 10
28.211715
 20
11.353326
  0
VERTEX
  8
LAYER_1
 62
7
 10
28.624442
 20
11.353326
  0
VERTEX
  8
LAYER_1
 62
7
 10
28.018987
 20
10.753326
  0
VERTEX
  8
LAYER_1
 62
7
 10
27.438078
 20
10.753326
  0
VERTEX
  8
LAYER_1
 62
7
 10
26.824442
 20
11.353326
  0
SEQEND
  0
POLYLINE
  8
LAYER_1
 62
0
 70
1
 66
1
  0
VERTEX
  8
LAYER_1
 62
7
 10
27.724442
 20
10.675326
 42
-0.012709
  0
VERTEX
  8
LAYER_1
 62
7
 10
28.307811
 20
10.665649
 42
-0.068000
  0
VERTEX
  8
LAYER_1
 62
7
 10
28.492752
 20
10.633649
 42
-0.172905
  0
VERTEX
  8
LAYER_1
 62
7
 10
28.588941
 20
10.565801
 42
-0.089880
  0
VERTEX
  8
LAYER_1
 62
7
 10
28.615567
 20
10.486517
 42
-0.043314
  0
VERTEX
  8
LAYER_1
 62
7
 10
28.624442
 20
10.366546
 42
-0.043215
  0
VERTEX
  8
LAYER_1
 62
7
 10
28.615567
 20
10.246244
 42
-0.089947
  0
VERTEX
  8
LAYER_1
 62
7
 10
28.588941
 20
10.166850
 42
-0.172905
  0
VERTEX
  8
LAYER_1
 62
7
 10
28.492752
 20
10.099002
 42
-0.068000
  0
VERTEX
  8
LAYER_1
 62
7
 10
28.307811
 20
10.067002
 42
-0.012750
  0
VERTEX
  8
LAYER_1
 62
7
 10
27.728280
 20
10.057326
 42
-0.012668
  0
VERTEX
  8
LAYER_1
 62
7
 10
27.141073
 20
10.067002
 42
-0.068000
  0
VERTEX
  8
LAYER_1
 62
7
 10
26.956132
 20
10.099002
 42
-0.172905
  0
VERTEX
  8
LAYER_1
 62
7
 10
26.859943
 20
10.166850
 42
-0.090463
  0
VERTEX
  8
LAYER_1
 62
7
 10
26.833317
 20
10.247124
 42
-0.042437
  0
VERTEX
  8
LAYER_1
 62
7
 10
26.824442
 20
10.370064
 42
-0.044106
  0
VERTEX
  8
LAYER_1
 62
7
 10
26.833317
 20
10.487616
 42
-0.090088
  0
VERTEX
  8
LAYER_1
 62
7
 10
26.859943
 20
10.565801
 42
-0.172905
  0
VERTEX
  8
LAYER_1
 62
7
 10
26.956132
 20
10.633649
 42
-0.068000
  0
VERTEX
  8
LAYER_1
 62
7
 10
27.141073
 20
10.665649
 42
-0.012748
  0
VERTEX
  8
LAYER_1
 62
7
 10
27.724442
 20
10.675326
  0
SEQEND
  0
POLYLINE
  8
LAYER_1
 62
0
 70
1
 66
1
  0
VERTEX
  8
LAYER_1
 62
7
 10
27.725401
 20
10.519176
 42
0.018285
  0
VERTEX
  8
LAYER_1
 62
7
 10
27.343525
 20
10.511699
 42
0.065672
  0
VERTEX
  8
LAYER_1
 62
7
 10
27.282358
 20
10.497458
 42
0.135560
  0
VERTEX
  8
LAYER_1
 62
7
 10
27.246617
 20
10.472331
 42
0.111542
  0
VERTEX
  8
LAYER_1
 62
7
 10
27.229346
 20
10.426641
 42
0.045619
  0
VERTEX
  8
LAYER_1
 62
7
 10
27.223589
 20
10.350711
 42
0.038229
  0
VERTEX
  8
LAYER_1
 62
7
 10
27.226707
 20
10.303316
 42
0.076859
  0
VERTEX
  8
LAYER_1
 62
7
 10
27.236062
 20
10.271096
 42
0.187934
  0
VERTEX
  8
LAYER_1
 62
7
 10
27.284277
 20
10.235138
 42
0.070760
  0
VERTEX
  8
LAYER_1
 62
7
 10
27.380945
 20
10.218753
 42
0.012015
  0
VERTEX
  8
LAYER_1
 62
7
 10
27.727320
 20
10.213475
 42
0.009908
  0
VERTEX
  8
LAYER_1
 62
7
 10
28.047789
 20
10.217434
 42
0.067427
  0
VERTEX
  8
LAYER_1
 62
7
 10
28.165806
 20
10.235028
 42
0.192612
  0
VERTEX
  8
LAYER_1
 62
7
 10
28.212821
 20
10.271316
 42
0.078983
  0
VERTEX
  8
LAYER_1
 62
7
 10
28.222176
 20
10.302931
 42
0.038733
  0
VERTEX
  8
LAYER_1
 62
7
 10
28.225295
 20
10.349831
 42
0.070140
  0
VERTEX
  8
LAYER_1
 62
7
 10
28.215700
 20
10.444840
 42
0.185573
  0
VERTEX
  8
LAYER_1
 62
7
 10
28.181158
 20
10.490585
 42
0.079454
  0
VERTEX
  8
LAYER_1
 62
7
 10
28.139181
 20
10.506255
 42
0.039884
  0
VERTEX
  8
LAYER_1
 62
7
 10
28.076574
 20
10.514558
 42
0.011391
  0
VERTEX
  8
LAYER_1
 62
7
 10
27.725401
 20
10.519176
  0
SEQEND
  0
POLYLINE
  8
LAYER_1
 62
1
 70
1
 66
1
  0
VERTEX
  8
LAYER_1
 62
7
 10
26.619907
 20
9.781436
  0
VERTEX
  8
LAYER_1
 62
7
 10
26.680285
 20
9.781436
  0
VERTEX
  8
LAYER_1
 62
7
 10
26.680285
 20
9.640924
  0
VERTEX
  8
LAYER_1
 62
7
 10
26.814442
 20
9.640924
  0
VERTEX
  8
LAYER_1
 62
7
 10
26.814442
 20
9.592843
  0
VERTEX
  8
LAYER_1
 62
7
 10
26.619907
 20
9.592843
  0
VERTEX
  8
LAYER_1
 62
7
 10
26.619907
 20
9.781436
  0
SEQEND
  0
POLYLINE
  8
LAYER_1
 62
1
 70
1
 66
1
  0
VERTEX
  8
LAYER_1
 62
7
 10
27.002027
 20
9.781436
  0
VERTEX
  8
LAYER_1
 62
7
 10
27.059503
 20
9.781436
  0
VERTEX
  8
LAYER_1
 62
7
 10
27.059503
 20
9.694808
 42
0.035344
  0
VERTEX
  8
LAYER_1
 62
7
 10
27.061575
 20
9.657089
 42
0.304015
  0
VERTEX
  8
LAYER_1
 62
7
 10
27.075875
 20
9.642582
 42
0.047936
  0
VERTEX
  8
LAYER_1
 62
7
 10
27.094130
 20
9.639991
  0
VERTEX
  8
LAYER_1
 62
7
 10
27.124716
 20
9.639128
 42
0.031574
  0
VERTEX
  8
LAYER_1
 62
7
 10
27.166096
 20
9.640855
 42
0.061214
  0
VERTEX
  8
LAYER_1
 62
7
 10
27.175958
 20
9.643428
 42
0.104817
  0
VERTEX
  8
LAYER_1
 62
7
 10
27.182469
 20
9.647694
 42
0.120269
  0
VERTEX
  8
LAYER_1
 62
7
 10
27.186959
 20
9.656398
 42
0.042782
  0
VERTEX
  8
LAYER_1
 62
7
 10
27.188962
 20
9.673945
  0
VERTEX
  8
LAYER_1
 62
7
 10
27.189653
 20
9.694808
  0
VERTEX
  8
LAYER_1
 62
7
 10
27.189653
 20
9.781436
  0
VERTEX
  8
LAYER_1
 62
7
 10
27.247129
 20
9.781436
  0
VERTEX
  8
LAYER_1
 62
7
 10
27.247129
 20
9.694808
 42
-0.022646
  0
VERTEX
  8
LAYER_1
 62
7
 10
27.244228
 20
9.635673
 42
-0.242486
  0
VERTEX
  8
LAYER_1
 62
7
 10
27.221569
 20
9.600856
 42
-0.101447
  0
VERTEX
  8
LAYER_1
 62
7
 10
27.190759
 20
9.592290
 42
-0.024428
  0
VERTEX
  8
LAYER_1
 62
7
 10
27.125407
 20
9.590079
  0
VERTEX
  8
LAYER_1
 62
7
 10
27.072767
 20
9.591323
 42
-0.039804
  0
VERTEX
  8
LAYER_1
 62
7
 10
27.040574
 20
9.595744
 42
-0.144668
  0
VERTEX
  8
LAYER_1
 62
7
 10
27.016603
 20
9.608455
 42
-0.153147
  0
VERTEX
  8
LAYER_1
 62
7
 10
27.005205
 20
9.632219
  0
VERTEX
  8
LAYER_1
 62
7
 10
27.002787
 20
9.652529
  0
VERTEX
  8
LAYER_1
 62
7
 10
27.002027
 20
9.694808
  0
VERTEX
  8
LAYER_1
 62
7
 10
27.002027
 20
9.781436
  0
SEQEND
  0
POLYLINE
  8
LAYER_1
 62
1
 70
1
 66
1
  0
VERTEX
  8
LAYER_1
 62
7
 10
27.434853
 20
9.781436
  0
VERTEX
  8
LAYER_1
 62
7
 10
27.663099
 20
9.781436
  0
VERTEX
  8
LAYER_1
 62
7
 10
27.663099
 20
9.733355
  0
VERTEX
  8
LAYER_1
 62
7
 10
27.579234
 20
9.733355
  0
VERTEX
  8
LAYER_1
 62
7
 10
27.579234
 20
9.592843
  0
VERTEX
  8
LAYER_1
 62
7
 10
27.518856
 20
9.592843
  0
VERTEX
  8
LAYER_1
 62
7
 10
27.518856
 20
9.733355
  0
VERTEX
  8
LAYER_1
 62
7
 10
27.434853
 20
9.733355
  0
VERTEX
  8
LAYER_1
 62
7
 10
27.434853
 20
9.781436
  0
SEQEND
  0
POLYLINE
  8
LAYER_1
 62
1
 70
1
 66
1
  0
VERTEX
  8
LAYER_1
 62
7
 10
27.851790
 20
9.781436
  0
VERTEX
  8
LAYER_1
 62
7
 10
27.912167
 20
9.781436
  0
VERTEX
  8
LAYER_1
 62
7
 10
27.912167
 20
9.592843
  0
VERTEX
  8
LAYER_1
 62
7
 10
27.851790
 20
9.592843
  0
VERTEX
  8
LAYER_1
 62
7
 10
27.851790
 20
9.781436
  0
SEQEND
  0
POLYLINE
  8
LAYER_1
 62
1
 70
1
 66
1
  0
VERTEX
  8
LAYER_1
 62
7
 10
28.239712
 20
9.784200
 42
-0.027684
  0
VERTEX
  8
LAYER_1
 62
7
 10
28.323716
 20
9.781160
 42
-0.132803
  0
VERTEX
  8
LAYER_1
 62
7
 10
28.350347
 20
9.771109
 42
-0.165850
  0
VERTEX
  8
LAYER_1
 62
7
 10
28.364198
 20
9.749797
 42
-0.059496
  0
VERTEX
  8
LAYER_1
 62
7
 10
28.369310
 20
9.687209
 42
-0.059438
  0
VERTEX
  8
LAYER_1
 62
7
 10
28.364198
 20
9.624482
 42
-0.165850
  0
VERTEX
  8
LAYER_1
 62
7
 10
28.350347
 20
9.603170
 42
-0.132803
  0
VERTEX
  8
LAYER_1
 62
7
 10
28.323716
 20
9.593119
 42
-0.027773
  0
VERTEX
  8
LAYER_1
 62
7
 10
28.240265
 20
9.590079
 42
-0.027595
  0
VERTEX
  8
LAYER_1
 62
7
 10
28.155709
 20
9.593119
 42
-0.132803
  0
VERTEX
  8
LAYER_1
 62
7
 10
28.129078
 20
9.603170
 42
-0.165850
  0
VERTEX
  8
LAYER_1
 62
7
 10
28.115227
 20
9.624482
 42
-0.058976
  0
VERTEX
  8
LAYER_1
 62
7
 10
28.110115
 20
9.688314
 42
-0.060208
  0
VERTEX
  8
LAYER_1
 62
7
 10
28.115227
 20
9.749797
 42
-0.165850
  0
VERTEX
  8
LAYER_1
 62
7
 10
28.129078
 20
9.771109
 42
-0.132803
  0
VERTEX
  8
LAYER_1
 62
7
 10
28.155709
 20
9.781160
 42
-0.027768
  0
VERTEX
  8
LAYER_1
 62
7
 10
28.239712
 20
9.784200
  0
SEQEND
  0
POLYLINE
  8
LAYER_1
 62
1
 70
1
 66
1
  0
VERTEX
  8
LAYER_1
 62
7
 10
28.239851
 20
9.735151
 42
0.039789
  0
VERTEX
  8
LAYER_1
 62
7
 10
28.184861
 20
9.732803
 42
0.267660
  0
VERTEX
  8
LAYER_1
 62
7
 10
28.170907
 20
9.720437
 42
0.057261
  0
VERTEX
  8
LAYER_1
 62
7
 10
28.168420
 20
9.706085
  0
VERTEX
  8
LAYER_1
 62
7
 10
28.167591
 20
9.682235
 42
0.051132
  0
VERTEX
  8
LAYER_1
 62
7
 10
28.169387
 20
9.657227
 42
0.172946
  0
VERTEX
  8
LAYER_1
 62
7
 10
28.176330
 20
9.645932
 42
0.138653
  0
VERTEX
  8
LAYER_1
 62
7
 10
28.190250
 20
9.640786
 42
0.026177
  0
VERTEX
  8
LAYER_1
 62
7
 10
28.240127
 20
9.639128
 42
0.021595
  0
VERTEX
  8
LAYER_1
 62
7
 10
28.286274
 20
9.640371
 42
0.134581
  0
VERTEX
  8
LAYER_1
 62
7
 10
28.303268
 20
9.645898
 42
0.174118
  0
VERTEX
  8
LAYER_1
 62
7
 10
28.310038
 20
9.657296
 42
0.052226
  0
VERTEX
  8
LAYER_1
 62
7
 10
28.311834
 20
9.681958
 42
0.032481
  0
VERTEX
  8
LAYER_1
 62
7
 10
28.310452
 20
9.711802
 42
0.121002
  0
VERTEX
  8
LAYER_1
 62
7
 10
28.305478
 20
9.726171
 42
0.203650
  0
VERTEX
  8
LAYER_1
 62
7
 10
28.290419
 20
9.733701
 42
0.024824
  0
VERTEX
  8
LAYER_1
 62
7
 10
28.239851
 20
9.735151
  0
SEQEND
  0
POLYLINE
  8
LAYER_1
 62
1
 70
1
 66
1
  0
VERTEX
  8
LAYER_1
 62
7
 10
28.567396
 20
9.781436
  0
VERTEX
  8
LAYER_1
 62
7
 10
28.668117
 20
9.781436
  0
VERTEX
  8
LAYER_1
 62
7
 10
28.766904
 20
9.640786
  0
VERTEX
  8
LAYER_1
 62
7
 10
28.772845
 20
9.640786
  0
VERTEX
  8
LAYER_1
 62
7
 10
28.771464
 20
9.781436
  0
VERTEX
  8
LAYER_1
 62
7
 10
28.829907
 20
9.781436
  0
VERTEX
  8
LAYER_1
 62
7
 10
28.829907
 20
9.592843
  0
VERTEX
  8
LAYER_1
 62
7
 10
28.730015
 20
9.592843
  0
VERTEX
  8
LAYER_1
 62
7
 10
28.630813
 20
9.733494
  0
VERTEX
  8
LAYER_1
 62
7
 10
28.624595
 20
9.733494
  0
VERTEX
  8
LAYER_1
 62
7
 10
28.625839
 20
9.592843
  0
VERTEX
  8
LAYER_1
 62
7
 10
28.567396
 20
9.592843
  0
VERTEX
  8
LAYER_1
 62
7
 10
28.567396
 20
9.781436
  0
SEQEND
  0
POLYLINE
  8
LAYER_1
 62
7
 70
1
 66
1
  0
VERTEX
  8
LAYER_1
 62
7
 10
27.038625
 20
12.660306
 42
0.199589
  0
VERTEX
  8
LAYER_1
 62
7
 10
27.019587
 20
12.706268
 42
0.199589
  0
VERTEX
  8
LAYER_1
 62
7
 10
26.973625
 20
12.725306
 42
0.199589
  0
VERTEX
  8
LAYER_1
 62
7
 10
26.927663
 20
12.706268
 42
0.199589
  0
VERTEX
  8
LAYER_1
 62
7
 10
26.908625
 20
12.660306
 42
0.199589
  0
VERTEX
  8
LAYER_1
 62
7
 10
26.927663
 20
12.614344
 42
0.199589
  0
VERTEX
  8
LAYER_1
 62
7
 10
26.973625
 20
12.595306
 42
0.199589
  0
VERTEX
  8
LAYER_1
 62
7
 10
27.019587
 20
12.614344
 42
0.199589
  0
VERTEX
  8
LAYER_1
 62
7
 10
27.038625
 20
12.660306
  0
SEQEND
  0
POLYLINE
  8
LAYER_1
 62
7
 70
1
 66
1
  0
VERTEX
  8
LAYER_1
 62
7
 10
28.538625
 20
12.660306
 42
0.199589
  0
VERTEX
  8
LAYER_1
 62
7
 10
28.519587
 20
12.706268
 42
0.199589
  0
VERTEX
  8
LAYER_1
 62
7
 10
28.473625
 20
12.725306
 42
0.199589
  0
VERTEX
  8
LAYER_1
 62
7
 10
28.427663
 20
12.706268
 42
0.199589
  0
VERTEX
  8
LAYER_1
 62
7
 10
28.408625
 20
12.660306
 42
0.199589
  0
VERTEX
  8
LAYER_1
 62
7
 10
28.427663
 20
12.614344
 42
0.199589
  0
VERTEX
  8
LAYER_1
 62
7
 10
28.473625
 20
12.595306
 42
0.199589
  0
VERTEX
  8
LAYER_1
 62
7
 10
28.519587
 20
12.614344
 42
0.199589
  0
VERTEX
  8
LAYER_1
 62
7
 10
28.538625
 20
12.660306
  0
SEQEND
  0
POLYLINE
  8
LAYER_1
 62
7
 70
1
 66
1
  0
VERTEX
  8
LAYER_1
 62
7
 10
27.038625
 20
8.160306
 42
0.199589
  0
VERTEX
  8
LAYER_1
 62
7
 10
27.019587
 20
8.206268
 42
0.199589
  0
VERTEX
  8
LAYER_1
 62
7
 10
26.973625
 20
8.225306
 42
0.199589
  0
VERTEX
  8
LAYER_1
 62
7
 10
26.927663
 20
8.206268
 42
0.199589
  0
VERTEX
  8
LAYER_1
 62
7
 10
26.908625
 20
8.160306
 42
0.199589
  0
VERTEX
  8
LAYER_1
 62
7
 10
26.927663
 20
8.114344
 42
0.199589
  0
VERTEX
  8
LAYER_1
 62
7
 10
26.973625
 20
8.095306
 42
0.199589
  0
VERTEX
  8
LAYER_1
 62
7
 10
27.019587
 20
8.114344
 42
0.199589
  0
VERTEX
  8
LAYER_1
 62
7
 10
27.038625
 20
8.160306
  0
SEQEND
  0
POLYLINE
  8
LAYER_1
 62
7
 70
1
 66
1
  0
VERTEX
  8
LAYER_1
 62
7
 10
28.538625
 20
8.160306
 42
0.199589
  0
VERTEX
  8
LAYER_1
 62
7
 10
28.519587
 20
8.206268
 42
0.199589
  0
VERTEX
  8
LAYER_1
 62
7
 10
28.473625
 20
8.225306
 42
0.199589
  0
VERTEX
  8
LAYER_1
 62
7
 10
28.427663
 20
8.206268
 42
0.199589
  0
VERTEX
  8
LAYER_1
 62
7
 10
28.408625
 20
8.160306
 42
0.199589
  0
VERTEX
  8
LAYER_1
 62
7
 10
28.427663
 20
8.114344
 42
0.199589
  0
VERTEX
  8
LAYER_1
 62
7
 10
28.473625
 20
8.095306
 42
0.199589
  0
VERTEX
  8
LAYER_1
 62
7
 10
28.519587
 20
8.114344
 42
0.199589
  0
VERTEX
  8
LAYER_1
 62
7
 10
28.538625
 20
8.160306
  0
SEQEND
  0
ENDSEC
  0
EOF
